<?xml version="1.0" encoding="utf-8"?>
<!-- Generator: Adobe Illustrator 16.0.4, SVG Export Plug-In . SVG Version: 6.00 Build 0)  -->
<!DOCTYPE svg PUBLIC "-//W3C//DTD SVG 1.1//EN" "http://www.w3.org/Graphics/SVG/1.1/DTD/svg11.dtd">
<svg version="1.1" id="Ebene_1" xmlns="http://www.w3.org/2000/svg" xmlns:xlink="http://www.w3.org/1999/xlink" x="0px" y="0px"
	 width="16px" height="16px" viewBox="0 0 16 16" enable-background="new 0 0 16 16" xml:space="preserve">
<path fill-rule="evenodd" clip-rule="evenodd" fill="#181716" d="M6.983,2.368l4.626,4.754c0.012,0.011,0.026,0.015,0.037,0.026
	c0.229,0.234,0.342,0.543,0.34,0.852c0.002,0.309-0.11,0.617-0.34,0.853c-0.011,0.011-0.025,0.015-0.037,0.025l-4.626,4.755
	c-0.454,0.467-1.192,0.467-1.646,0c-0.455-0.468-0.455-1.225,0-1.692L9.172,8L5.338,4.06c-0.455-0.468-0.455-1.225,0-1.691
	C5.791,1.9,6.529,1.9,6.983,2.368z"/>
</svg>
