<?xml version="1.0" encoding="utf-8"?>
<!-- Generator: Adobe Illustrator 16.0.4, SVG Export Plug-In . SVG Version: 6.00 Build 0)  -->
<!DOCTYPE svg PUBLIC "-//W3C//DTD SVG 1.1//EN" "http://www.w3.org/Graphics/SVG/1.1/DTD/svg11.dtd">
<svg version="1.1" id="Ebene_1" xmlns="http://www.w3.org/2000/svg" xmlns:xlink="http://www.w3.org/1999/xlink" x="0px" y="0px"
	 width="16px" height="16px" viewBox="0 0 16 16" enable-background="new 0 0 16 16" xml:space="preserve">
<path fill-rule="evenodd" clip-rule="evenodd" fill="#181716" d="M2.391,8.993l4.754-4.626C7.155,4.355,7.159,4.341,7.171,4.33
	c0.234-0.229,0.543-0.342,0.852-0.34c0.309-0.002,0.617,0.11,0.853,0.34C8.886,4.341,8.89,4.355,8.9,4.367l4.755,4.626
	c0.467,0.454,0.467,1.192,0,1.646c-0.468,0.455-1.225,0.455-1.692,0l-3.94-3.834l-3.94,3.834c-0.468,0.455-1.225,0.455-1.691,0
	C1.923,10.186,1.923,9.447,2.391,8.993z"/>
</svg>
