<?xml version="1.0" encoding="utf-8"?>
<!-- Generator: Adobe Illustrator 16.0.4, SVG Export Plug-In . SVG Version: 6.00 Build 0)  -->
<!DOCTYPE svg PUBLIC "-//W3C//DTD SVG 1.1//EN" "http://www.w3.org/Graphics/SVG/1.1/DTD/svg11.dtd">
<svg version="1.1" id="Ebene_1" xmlns="http://www.w3.org/2000/svg" xmlns:xlink="http://www.w3.org/1999/xlink" x="0px" y="0px"
	 width="16px" height="16px" viewBox="0 0 16 16" enable-background="new 0 0 16 16" xml:space="preserve">
<path fill-rule="evenodd" clip-rule="evenodd" fill="#181716" d="M3.818,6.187L8,2.005l4.182,4.182c0.195,0.195,0.512,0.195,0.707,0
	c0.196-0.195,0.196-0.512,0-0.707L8.354,0.944c-0.195-0.196-0.512-0.196-0.707,0L3.111,5.479c-0.196,0.195-0.196,0.512,0,0.707
	C3.307,6.382,3.623,6.382,3.818,6.187z"/>
<path fill-rule="evenodd" clip-rule="evenodd" fill="#181716" d="M12.182,9.824L8,14.006L3.818,9.824
	c-0.195-0.195-0.512-0.195-0.707,0c-0.196,0.195-0.196,0.512,0,0.707l4.535,4.535c0.195,0.196,0.512,0.196,0.707,0l4.535-4.535
	c0.196-0.195,0.196-0.512,0-0.707C12.693,9.629,12.377,9.629,12.182,9.824z"/>
</svg>
