<?xml version="1.0" encoding="utf-8"?>
<!-- Generator: Adobe Illustrator 16.0.4, SVG Export Plug-In . SVG Version: 6.00 Build 0)  -->
<!DOCTYPE svg PUBLIC "-//W3C//DTD SVG 1.1//EN" "http://www.w3.org/Graphics/SVG/1.1/DTD/svg11.dtd">
<svg version="1.1" id="Ebene_1" xmlns="http://www.w3.org/2000/svg" xmlns:xlink="http://www.w3.org/1999/xlink" x="0px" y="0px"
	 width="16px" height="16px" viewBox="0 0 16 16" enable-background="new 0 0 16 16" xml:space="preserve">
<path fill-rule="evenodd" clip-rule="evenodd" fill="#181716" d="M13.632,6.958l-4.754,4.626c-0.011,0.012-0.015,0.026-0.026,0.037
	C8.617,11.851,8.309,11.963,8,11.961c-0.309,0.002-0.617-0.11-0.853-0.34c-0.011-0.011-0.015-0.025-0.025-0.037L2.367,6.958
	C1.9,6.504,1.9,5.766,2.367,5.312c0.468-0.455,1.225-0.455,1.692,0L8,9.146l3.94-3.834c0.468-0.455,1.225-0.455,1.691,0
	C14.1,5.766,14.1,6.504,13.632,6.958z"/>
</svg>
