<?xml version="1.0" encoding="utf-8"?>
<!-- Generator: Adobe Illustrator 16.0.4, SVG Export Plug-In . SVG Version: 6.00 Build 0)  -->
<!DOCTYPE svg PUBLIC "-//W3C//DTD SVG 1.1//EN" "http://www.w3.org/Graphics/SVG/1.1/DTD/svg11.dtd">
<svg version="1.1" id="Ebene_1" xmlns="http://www.w3.org/2000/svg" xmlns:xlink="http://www.w3.org/1999/xlink" x="0px" y="0px"
	 width="16px" height="16px" viewBox="0 0 16 16" enable-background="new 0 0 16 16" xml:space="preserve">
<path fill-rule="evenodd" clip-rule="evenodd" fill="#181716" d="M9.018,13.632L4.392,8.878C4.38,8.867,4.365,8.863,4.354,8.852
	C4.125,8.617,4.013,8.309,4.015,8c-0.002-0.309,0.11-0.617,0.34-0.853C4.365,7.137,4.38,7.133,4.392,7.122l4.626-4.755
	c0.454-0.467,1.192-0.467,1.646,0c0.455,0.468,0.455,1.225,0,1.692L6.829,8l3.834,3.94c0.455,0.468,0.455,1.225,0,1.691
	C10.21,14.1,9.472,14.1,9.018,13.632z"/>
</svg>
