<?xml version="1.0" encoding="utf-8"?>
<!-- Generator: Adobe Illustrator 16.0.4, SVG Export Plug-In . SVG Version: 6.00 Build 0)  -->
<!DOCTYPE svg PUBLIC "-//W3C//DTD SVG 1.1//EN" "http://www.w3.org/Graphics/SVG/1.1/DTD/svg11.dtd">
<svg version="1.1" id="Ebene_1" xmlns="http://www.w3.org/2000/svg" xmlns:xlink="http://www.w3.org/1999/xlink" x="0px" y="0px"
	 width="16px" height="16px" viewBox="0 0 16 16" enable-background="new 0 0 16 16" xml:space="preserve">
<path fill-rule="evenodd" clip-rule="evenodd" fill="#181716" d="M7.998,16.021c-4.418,0-8-3.587-8-8.011c0-4.423,3.582-8.01,8-8.01
	c4.418,0,8,3.587,8,8.01C15.999,12.434,12.417,16.021,7.998,16.021z M8.079,1.941c-3.392,0-6.142,2.754-6.142,6.15
	c0,3.396,2.75,6.148,6.142,6.148c3.392,0,6.142-2.753,6.142-6.148C14.221,4.695,11.471,1.941,8.079,1.941z M6.004,4.494h0.999
	c0.276,0,0.499,0.225,0.499,0.502v6.261c0,0.276-0.223,0.501-0.499,0.501H6.004c-0.276,0-0.5-0.225-0.5-0.501V4.996
	C5.505,4.719,5.729,4.494,6.004,4.494z M9.25,4.494h0.999c0.275,0,0.499,0.225,0.499,0.502v6.261c0,0.276-0.224,0.501-0.499,0.501
	H9.25c-0.276,0-0.5-0.225-0.5-0.501V4.996C8.75,4.719,8.975,4.494,9.25,4.494z"/>
</svg>
