<?xml version="1.0" encoding="utf-8"?>
<!-- Generator: Adobe Illustrator 16.0.4, SVG Export Plug-In . SVG Version: 6.00 Build 0)  -->
<!DOCTYPE svg PUBLIC "-//W3C//DTD SVG 1.1//EN" "http://www.w3.org/Graphics/SVG/1.1/DTD/svg11.dtd">
<svg version="1.1" id="Ebene_1" xmlns="http://www.w3.org/2000/svg" xmlns:xlink="http://www.w3.org/1999/xlink" x="0px" y="0px"
	 width="16px" height="16px" viewBox="0 0 16 16" enable-background="new 0 0 16 16" xml:space="preserve">
<path fill-rule="evenodd" clip-rule="evenodd" fill="#181716" d="M5.506,7.481l3.823,2.221c-1.214,0.733-2.531,1.528-3.259,1.968
	c-0.29,0.196-0.563-0.053-0.563-0.336V7.481z M11.551,8.359c0.312-0.166,0.205-0.457-0.014-0.587
	C10.359,7.078,7.411,5.34,6.124,4.581C5.889,4.458,5.506,4.384,5.506,4.803v0.716l5.479,3.182C11.2,8.572,11.394,8.455,11.551,8.359
	z M16,8c0,4.418-3.582,8-8,8s-8-3.582-8-8s3.582-8,8-8S16,3.582,16,8z M2.204,4.073l12.064,7.029C14.732,10.167,15,9.116,15,8.001
	C15,4.134,11.866,1,7.999,1C5.588,1,3.463,2.219,2.204,4.073z M13.828,11.877L1.756,4.844c-0.481,0.95-0.758,2.02-0.758,3.157
	c0,3.866,3.134,7,7,7C10.432,15.001,12.573,13.76,13.828,11.877z"/>
</svg>
