<?xml version="1.0" encoding="utf-8"?>
<!-- Generator: Adobe Illustrator 16.0.4, SVG Export Plug-In . SVG Version: 6.00 Build 0)  -->
<!DOCTYPE svg PUBLIC "-//W3C//DTD SVG 1.1//EN" "http://www.w3.org/Graphics/SVG/1.1/DTD/svg11.dtd">
<svg version="1.1" id="Ebene_1" xmlns="http://www.w3.org/2000/svg" xmlns:xlink="http://www.w3.org/1999/xlink" x="0px" y="0px"
	 width="16px" height="16px" viewBox="0 0 16 16" enable-background="new 0 0 16 16" xml:space="preserve">
<path fill-rule="evenodd" clip-rule="evenodd" fill="#181716" d="M8,0C3.582,0,0,3.582,0,8s3.582,8,8,8s8-3.582,8-8S12.418,0,8,0z
	 M7.999,15.001c-3.866,0-7-3.134-7-7c0-3.867,3.134-7.001,7-7.001C11.866,1,15,4.134,15,8.001C15,11.867,11.866,15.001,7.999,15.001
	z M14.568,11.294c0.207,0.121,0.273,0.391,0.15,0.604l0,0c-0.124,0.212-0.392,0.287-0.599,0.167L1.426,4.669
	c-0.207-0.121-0.273-0.391-0.15-0.604l0,0C1.4,3.854,1.668,3.779,1.875,3.899L14.568,11.294z M5.506,11.334
	c0,0.283,0.274,0.532,0.563,0.336c0.729-0.44,2.045-1.235,3.259-1.968L5.506,7.481V11.334z M11.538,7.772
	C10.359,7.078,7.411,5.34,6.124,4.581C5.889,4.458,5.506,4.384,5.506,4.803v0.716l5.479,3.182c0.214-0.129,0.408-0.247,0.566-0.342
	C11.864,8.193,11.756,7.902,11.538,7.772z"/>
</svg>
