<?xml version="1.0" encoding="utf-8"?>
<!-- Generator: Adobe Illustrator 16.0.4, SVG Export Plug-In . SVG Version: 6.00 Build 0)  -->
<!DOCTYPE svg PUBLIC "-//W3C//DTD SVG 1.1//EN" "http://www.w3.org/Graphics/SVG/1.1/DTD/svg11.dtd">
<svg version="1.1" id="Ebene_1" xmlns="http://www.w3.org/2000/svg" xmlns:xlink="http://www.w3.org/1999/xlink" x="0px" y="0px"
	 width="16px" height="16px" viewBox="0 0 16 16" enable-background="new 0 0 16 16" xml:space="preserve">
<path fill-rule="evenodd" clip-rule="evenodd" d="M8,15.995c-4.417,0-7.999-3.582-7.999-7.999S3.583-0.002,8-0.002
	c4.417,0,7.998,3.581,7.998,7.998S12.417,15.995,8,15.995z M8.081,14.216c2.062,0,3.887-1.017,5-2.575L2.528,5.454
	C2.152,6.25,1.941,7.139,1.941,8.077C1.941,11.467,4.69,14.216,8.081,14.216z M8.081,1.937c-2.091,0-3.938,1.046-5.046,2.643
	l10.564,6.193c0.398-0.814,0.622-1.729,0.622-2.696C14.22,4.686,11.472,1.937,8.081,1.937z M11.552,8.36
	c-0.24,0.145-0.375,0.227-0.737,0.445L5.507,5.728c0-0.448,0-0.632,0-0.927c0-0.418,0.383-0.344,0.618-0.221
	c1.288,0.759,4.235,2.497,5.414,3.191C11.757,7.903,11.865,8.194,11.552,8.36z M6.07,11.671c-0.289,0.196-0.563-0.054-0.563-0.337
	c0-0.9,0-2.31,0-3.794l3.726,2.221C7.979,10.518,6.829,11.212,6.07,11.671z"/>
</svg>
