<?xml version="1.0" encoding="utf-8"?>
<!-- Generator: Adobe Illustrator 16.0.4, SVG Export Plug-In . SVG Version: 6.00 Build 0)  -->
<!DOCTYPE svg PUBLIC "-//W3C//DTD SVG 1.1//EN" "http://www.w3.org/Graphics/SVG/1.1/DTD/svg11.dtd">
<svg version="1.1" id="Ebene_1" xmlns="http://www.w3.org/2000/svg" xmlns:xlink="http://www.w3.org/1999/xlink" x="0px" y="0px"
	 width="16px" height="16px" viewBox="0 0 16 16" enable-background="new 0 0 16 16" xml:space="preserve">
<path fill-rule="evenodd" clip-rule="evenodd" fill="#181716" d="M7.999,15.992C3.582,15.992,0,12.412,0,7.996S3.582,0,7.999,0
	c4.417,0,7.999,3.58,7.999,7.996S12.416,15.992,7.999,15.992z M8.079,1.938c-3.391,0-6.14,2.748-6.14,6.139
	c0,3.39,2.749,6.138,6.14,6.138c3.392,0,6.14-2.748,6.14-6.138C14.219,4.687,11.471,1.938,8.079,1.938z M5.506,4.803
	c0,1.415,0,5.023,0,6.531c0,0.283,0.274,0.532,0.563,0.336c1.262-0.762,4.296-2.595,5.482-3.311
	c0.312-0.166,0.205-0.457-0.014-0.587C10.359,7.078,7.411,5.34,6.124,4.581C5.889,4.458,5.506,4.384,5.506,4.803z"/>
</svg>
