<?xml version="1.0" encoding="utf-8"?>
<!-- Generator: Adobe Illustrator 16.0.4, SVG Export Plug-In . SVG Version: 6.00 Build 0)  -->
<!DOCTYPE svg PUBLIC "-//W3C//DTD SVG 1.1//EN" "http://www.w3.org/Graphics/SVG/1.1/DTD/svg11.dtd">
<svg version="1.1" id="Ebene_1" xmlns="http://www.w3.org/2000/svg" xmlns:xlink="http://www.w3.org/1999/xlink" x="0px" y="0px"
	 width="16px" height="16px" viewBox="0 0 16 16" enable-background="new 0 0 16 16" xml:space="preserve">
<path fill-rule="evenodd" clip-rule="evenodd" fill="#181716" d="M5.506,4.803c0,1.415,0,5.023,0,6.531
	c0,0.283,0.274,0.532,0.563,0.336c1.262-0.762,4.296-2.595,5.482-3.311c0.312-0.166,0.205-0.457-0.014-0.587
	C10.359,7.078,7.411,5.34,6.124,4.581C5.889,4.458,5.506,4.384,5.506,4.803z"/>
<path fill-rule="evenodd" clip-rule="evenodd" fill="#181716" d="M8,0C3.582,0,0,3.582,0,8s3.582,8,8,8s8-3.582,8-8S12.418,0,8,0z
	 M7.999,15.001c-3.866,0-7-3.134-7-7c0-3.867,3.134-7.001,7-7.001C11.866,1,15,4.134,15,8.001C15,11.867,11.866,15.001,7.999,15.001
	z"/>
</svg>
