<?xml version="1.0" encoding="utf-8"?>
<!-- Generator: Adobe Illustrator 16.0.4, SVG Export Plug-In . SVG Version: 6.00 Build 0)  -->
<!DOCTYPE svg PUBLIC "-//W3C//DTD SVG 1.1//EN" "http://www.w3.org/Graphics/SVG/1.1/DTD/svg11.dtd">
<svg version="1.1" id="Ebene_1" xmlns="http://www.w3.org/2000/svg" xmlns:xlink="http://www.w3.org/1999/xlink" x="0px" y="0px"
	 width="16px" height="16px" viewBox="0 0 16 16" enable-background="new 0 0 16 16" xml:space="preserve">
<path fill-rule="evenodd" clip-rule="evenodd" fill="#181716" d="M6.468,4.494h0.535c0.276,0,0.499,0.225,0.499,0.502v6.261
	c0,0.276-0.223,0.501-0.499,0.501H6.468c-0.276,0-0.5-0.225-0.5-0.501V4.996C5.969,4.719,6.192,4.494,6.468,4.494z M8.95,4.494
	h0.535c0.276,0,0.499,0.225,0.499,0.502v6.261c0,0.276-0.223,0.501-0.499,0.501H8.95c-0.276,0-0.5-0.225-0.5-0.501V4.996
	C8.451,4.719,8.674,4.494,8.95,4.494z"/>
<path fill-rule="evenodd" clip-rule="evenodd" fill="#181716" d="M8,0C3.582,0,0,3.582,0,8s3.582,8,8,8s8-3.582,8-8S12.418,0,8,0z
	 M7.999,15.001c-3.866,0-7-3.134-7-7c0-3.867,3.134-7.001,7-7.001C11.866,1,15,4.134,15,8.001C15,11.867,11.866,15.001,7.999,15.001
	z"/>
</svg>
