<?xml version="1.0" encoding="utf-8"?>
<!-- Generator: Adobe Illustrator 16.0.4, SVG Export Plug-In . SVG Version: 6.00 Build 0)  -->
<!DOCTYPE svg PUBLIC "-//W3C//DTD SVG 1.1//EN" "http://www.w3.org/Graphics/SVG/1.1/DTD/svg11.dtd">
<svg version="1.1" id="Ebene_1" xmlns="http://www.w3.org/2000/svg" xmlns:xlink="http://www.w3.org/1999/xlink" x="0px" y="0px"
	 width="16px" height="16px" viewBox="0 0 16 16" enable-background="new 0 0 16 16" xml:space="preserve">
<g>
	<path fill="#181716" d="M6.506,5.967L8.46,7.119l1.625,0.958l-1.373,0.83l-2.206,1.332V5.967 M5.783,4.485
		c-0.151,0-0.277,0.078-0.277,0.318c0,1.415,0,5.023,0,6.531c0,0.213,0.154,0.406,0.354,0.406c0.066,0,0.137-0.021,0.209-0.07
		c1.262-0.762,4.296-2.595,5.482-3.311c0.312-0.166,0.205-0.457-0.014-0.587C10.359,7.078,7.411,5.34,6.124,4.581
		C6.023,4.528,5.896,4.485,5.783,4.485L5.783,4.485z"/>
</g>
<path fill-rule="evenodd" clip-rule="evenodd" fill="#181716" d="M8,0C3.582,0,0,3.582,0,8s3.582,8,8,8s8-3.582,8-8S12.418,0,8,0z
	 M7.999,15.001c-3.866,0-7-3.134-7-7c0-3.867,3.134-7.001,7-7.001C11.866,1,15,4.134,15,8.001C15,11.867,11.866,15.001,7.999,15.001
	z"/>
</svg>
