<?xml version="1.0" encoding="utf-8"?>
<!-- Generator: Adobe Illustrator 16.0.4, SVG Export Plug-In . SVG Version: 6.00 Build 0)  -->
<!DOCTYPE svg PUBLIC "-//W3C//DTD SVG 1.1//EN" "http://www.w3.org/Graphics/SVG/1.1/DTD/svg11.dtd">
<svg version="1.1" id="Ebene_1" xmlns="http://www.w3.org/2000/svg" xmlns:xlink="http://www.w3.org/1999/xlink" x="0px" y="0px"
	 width="16px" height="16px" viewBox="0 0 16 16" enable-background="new 0 0 16 16" xml:space="preserve">
<path fill-rule="evenodd" clip-rule="evenodd" fill="#181716" d="M3.016,3.515c0,0.188-0.107,0.345-0.26,0.431v0.008L2.712,3.975
	c-0.001,0-0.002,0.001-0.003,0.001L0.721,4.942C0.707,4.95,0.693,4.958,0.677,4.964L0.666,4.97L0.663,4.967
	C0.611,4.985,0.558,5,0.5,5C0.224,5,0,4.776,0,4.5V2.516c0-0.276,0.224-0.5,0.5-0.5c0.073,0,0.141,0.018,0.203,0.045L0.705,2.06
	l1.993,0.992C2.709,3.056,2.72,3.062,2.731,3.068L2.755,3.08v0.004C2.908,3.17,3.016,3.327,3.016,3.515z M2.755,7.084V7.08
	L2.731,7.068C2.72,7.062,2.709,7.056,2.698,7.052L0.705,6.06L0.703,6.061C0.641,6.033,0.573,6.016,0.5,6.016
	c-0.276,0-0.5,0.224-0.5,0.5V8.5C0,8.776,0.224,9,0.5,9c0.058,0,0.111-0.015,0.163-0.033L0.666,8.97l0.011-0.006
	C0.693,8.958,0.707,8.95,0.721,8.942l1.988-0.967c0.001,0,0.002-0.001,0.003-0.001l0.043-0.021V7.945
	c0.153-0.086,0.26-0.243,0.26-0.431S2.908,7.17,2.755,7.084z M2.755,11.084V11.08l-0.024-0.012
	c-0.011-0.006-0.022-0.013-0.034-0.017L0.705,10.06l-0.001,0.001c-0.062-0.027-0.13-0.045-0.203-0.045c-0.276,0-0.5,0.224-0.5,0.5
	V12.5C0,12.776,0.224,13,0.5,13c0.058,0,0.111-0.015,0.163-0.033l0.003,0.003l0.011-0.006c0.016-0.006,0.029-0.014,0.044-0.021
	l1.988-0.967c0.001,0,0.002-0.001,0.003-0.001l0.043-0.021v-0.008c0.153-0.086,0.26-0.243,0.26-0.431S2.908,11.17,2.755,11.084z
	 M4,3.499c0-0.828,0.671-1.5,1.5-1.5h9c0.829,0,1.5,0.672,1.5,1.5s-0.671,1.5-1.5,1.5h-9C4.671,4.999,4,4.327,4,3.499z M5,3.499
	c0,0.276,0.224,0.5,0.5,0.5h9c0.276,0,0.5-0.224,0.5-0.5s-0.224-0.5-0.5-0.5h-9C5.224,2.999,5,3.223,5,3.499z M16,7.5
	C16,8.328,15.329,9,14.5,9h-9C4.671,9,4,8.328,4,7.5S4.671,6,5.5,6h9C15.329,6,16,6.672,16,7.5z M15,7.5C15,7.224,14.776,7,14.5,7
	h-9C5.224,7,5,7.224,5,7.5S5.224,8,5.5,8h9C14.776,8,15,7.776,15,7.5z M16,11.5c0,0.828-0.671,1.5-1.5,1.5h-9
	C4.671,13,4,12.328,4,11.5S4.671,10,5.5,10h9C15.329,10,16,10.672,16,11.5z M15,11.5c0-0.276-0.224-0.5-0.5-0.5h-9
	C5.224,11,5,11.224,5,11.5S5.224,12,5.5,12h9C14.776,12,15,11.776,15,11.5z"/>
</svg>
