<?xml version="1.0" encoding="utf-8"?>
<!-- Generator: Adobe Illustrator 16.0.4, SVG Export Plug-In . SVG Version: 6.00 Build 0)  -->
<!DOCTYPE svg PUBLIC "-//W3C//DTD SVG 1.1//EN" "http://www.w3.org/Graphics/SVG/1.1/DTD/svg11.dtd">
<svg version="1.1" id="Ebene_1" xmlns="http://www.w3.org/2000/svg" xmlns:xlink="http://www.w3.org/1999/xlink" x="0px" y="0px"
	 width="16px" height="16px" viewBox="0 0 16 16" enable-background="new 0 0 16 16" xml:space="preserve">
<path fill-rule="evenodd" clip-rule="evenodd" fill="#181716" d="M3.016,3.01c0,0.188-0.107,0.345-0.26,0.431v0.008L2.712,3.47
	c-0.001,0-0.002,0.001-0.003,0.001L0.721,4.942C0.707,4.95,0.693,4.958,0.677,4.964L0.666,4.97L0.663,4.967
	C0.611,4.985,0.558,5,0.5,5C0.224,5,0,4.776,0,4.5v-3C0,1.224,0.224,1,0.5,1c0.073,0,0.141,0.018,0.203,0.045l0.001-0.001
	l1.993,1.503C2.709,2.551,2.72,2.558,2.731,2.563l0.024,0.012v0.004C2.908,2.665,3.016,2.822,3.016,3.01z M3.016,8.01
	c0,0.188-0.107,0.345-0.26,0.431v0.008L2.712,8.47c-0.001,0-0.002,0.001-0.003,0.001L0.721,9.942
	C0.707,9.95,0.693,9.958,0.677,9.964L0.666,9.97L0.663,9.967C0.611,9.985,0.558,10,0.5,10C0.224,10,0,9.776,0,9.5v-3
	C0,6.224,0.224,6,0.5,6c0.073,0,0.141,0.018,0.203,0.045l0.001-0.001l1.993,1.503C2.709,7.551,2.72,7.558,2.731,7.563l0.024,0.012
	v0.004C2.908,7.665,3.016,7.822,3.016,8.01z M3.016,13.01c0,0.188-0.107,0.345-0.26,0.431v0.008L2.712,13.47
	c-0.001,0-0.002,0.001-0.003,0.001l-1.988,1.472c-0.015,0.008-0.028,0.016-0.044,0.021L0.666,14.97l-0.003-0.003
	C0.611,14.985,0.558,15,0.5,15C0.224,15,0,14.776,0,14.5v-3C0,11.224,0.224,11,0.5,11c0.073,0,0.141,0.018,0.203,0.045l0.001-0.001
	l1.993,1.503c0.012,0.004,0.022,0.011,0.034,0.017l0.024,0.012v0.004C2.908,12.665,3.016,12.822,3.016,13.01z M16,3.014
	c0-0.552-0.447-0.998-0.998-0.998H5.009c-0.551,0-0.998,0.446-0.998,0.998l0,0c0,0.551,0.447,0.997,0.998,0.997h9.993
	C15.553,4.011,16,3.564,16,3.014L16,3.014z M16,8.001c0-0.552-0.447-0.998-0.998-0.998H5.009c-0.551,0-0.998,0.446-0.998,0.998l0,0
	c0,0.551,0.447,0.997,0.998,0.997h9.993C15.553,8.998,16,8.552,16,8.001L16,8.001z M16,13.001c0-0.552-0.447-0.998-0.998-0.998
	H5.009c-0.551,0-0.998,0.446-0.998,0.998l0,0c0,0.551,0.447,0.997,0.998,0.997h9.993C15.553,13.998,16,13.552,16,13.001L16,13.001z"
	/>
</svg>
