<?xml version="1.0" encoding="utf-8"?>
<!-- Generator: Adobe Illustrator 16.0.4, SVG Export Plug-In . SVG Version: 6.00 Build 0)  -->
<!DOCTYPE svg PUBLIC "-//W3C//DTD SVG 1.1//EN" "http://www.w3.org/Graphics/SVG/1.1/DTD/svg11.dtd">
<svg version="1.1" id="Ebene_1" xmlns="http://www.w3.org/2000/svg" xmlns:xlink="http://www.w3.org/1999/xlink" x="0px" y="0px"
	 width="16px" height="16px" viewBox="0 0 16 16" enable-background="new 0 0 16 16" xml:space="preserve">
<path fill-rule="evenodd" clip-rule="evenodd" fill="#181716" d="M0,5.016V13c0,0.553,0.448,1,1,1h4v-1H1V5h4V4.016H1
	C0.448,4.016,0,4.463,0,5.016z M15,4.016H8V5h7v8H8v1h7c0.552,0,1-0.447,1-1V5.016C16,4.463,15.552,4.016,15,4.016z M6.5,2
	C6.224,2,6,2.224,6,2.5v11C6,13.776,6.224,14,6.5,14S7,13.776,7,13.5v-11C7,2.224,6.776,2,6.5,2z"/>
</svg>
