<?xml version="1.0" encoding="utf-8"?>
<!-- Generator: Adobe Illustrator 16.0.4, SVG Export Plug-In . SVG Version: 6.00 Build 0)  -->
<!DOCTYPE svg PUBLIC "-//W3C//DTD SVG 1.1//EN" "http://www.w3.org/Graphics/SVG/1.1/DTD/svg11.dtd">
<svg version="1.1" id="Ebene_1" xmlns="http://www.w3.org/2000/svg" xmlns:xlink="http://www.w3.org/1999/xlink" x="0px" y="0px"
	 width="16px" height="16px" viewBox="0 0 16 16" enable-background="new 0 0 16 16" xml:space="preserve">
<path fill-rule="evenodd" clip-rule="evenodd" fill="#181716" d="M1.51,13C0.676,13,0,12.324,0,11.49s0.676-1.511,1.51-1.511
	s1.51,0.677,1.51,1.511S2.344,13,1.51,13z M5.204,9.979h9.286c0.834,0,1.51,0.677,1.51,1.511S15.324,13,14.49,13H5.204
	c-0.833,0-1.51-0.676-1.51-1.51S4.371,9.979,5.204,9.979z M1.51,9C0.676,9,0,8.324,0,7.49s0.676-1.511,1.51-1.511
	S3.02,6.656,3.02,7.49S2.344,9,1.51,9z M5.204,5.979h9.286c0.834,0,1.51,0.677,1.51,1.511S15.324,9,14.49,9H5.204
	c-0.833,0-1.51-0.676-1.51-1.51S4.371,5.979,5.204,5.979z M1.51,5C0.676,5,0,4.324,0,3.49s0.676-1.511,1.51-1.511
	S3.02,2.656,3.02,3.49S2.344,5,1.51,5z M5.204,1.979h9.286c0.834,0,1.51,0.677,1.51,1.511S15.324,5,14.49,5H5.204
	c-0.833,0-1.51-0.676-1.51-1.51S4.371,1.979,5.204,1.979z"/>
</svg>
