<?xml version="1.0" encoding="utf-8"?>
<!-- Generator: Adobe Illustrator 16.0.4, SVG Export Plug-In . SVG Version: 6.00 Build 0)  -->
<!DOCTYPE svg PUBLIC "-//W3C//DTD SVG 1.1//EN" "http://www.w3.org/Graphics/SVG/1.1/DTD/svg11.dtd">
<svg version="1.1" id="Ebene_1" xmlns="http://www.w3.org/2000/svg" xmlns:xlink="http://www.w3.org/1999/xlink" x="0px" y="0px"
	 width="15.999px" height="16px" viewBox="0 0 15.999 16" enable-background="new 0 0 15.999 16" xml:space="preserve">
<path fill-rule="evenodd" clip-rule="evenodd" fill="#181716" d="M13.656,13.657c-3.124,3.124-8.189,3.124-11.313,0
	s-3.124-8.19,0-11.314s8.189-3.124,11.313,0S16.78,10.533,13.656,13.657z M11.178,4.885L6.941,9.122L4.82,7.001
	c-0.391-0.392-1.023-0.392-1.415,0c-0.391,0.391-0.391,1.023,0,1.414l2.122,2.121c0,0-0.608-0.607,0.409,0.409
	c0.657,0.657,1.415,0.595,1.923,0.087c0.375-0.375,0.497-0.496,0.497-0.496l4.238-4.237c0.391-0.391,0.391-1.023,0-1.414
	C12.202,4.493,11.569,4.493,11.178,4.885z"/>
</svg>
