<?xml version="1.0" encoding="utf-8"?>
<!-- Generator: Adobe Illustrator 16.0.4, SVG Export Plug-In . SVG Version: 6.00 Build 0)  -->
<!DOCTYPE svg PUBLIC "-//W3C//DTD SVG 1.1//EN" "http://www.w3.org/Graphics/SVG/1.1/DTD/svg11.dtd">
<svg version="1.1" id="Ebene_1" xmlns="http://www.w3.org/2000/svg" xmlns:xlink="http://www.w3.org/1999/xlink" x="0px" y="0px"
	 width="16px" height="16px" viewBox="0 0 16 16" enable-background="new 0 0 16 16" xml:space="preserve">
<path fill="#181716" d="M7.498,0C3.354,0-0.004,3.358-0.004,7.502s3.359,7.502,7.502,7.502c4.144,0,7.502-3.358,7.502-7.502
	S11.641,0,7.498,0z M7.5,14C3.91,14,1,11.09,1,7.5S3.91,1,7.5,1S14,3.91,14,7.5S11.089,14,7.5,14z M12,7.5C12,7.776,11.776,8,11.5,8
	h-8C3.223,8,3,7.776,3,7.5S3.223,7,3.5,7h8C11.776,7,12,7.224,12,7.5z"/>
</svg>
