<?xml version="1.0" encoding="utf-8"?>
<!-- Generator: Adobe Illustrator 16.0.4, SVG Export Plug-In . SVG Version: 6.00 Build 0)  -->
<!DOCTYPE svg PUBLIC "-//W3C//DTD SVG 1.1//EN" "http://www.w3.org/Graphics/SVG/1.1/DTD/svg11.dtd">
<svg version="1.1" id="Ebene_1" xmlns="http://www.w3.org/2000/svg" xmlns:xlink="http://www.w3.org/1999/xlink" x="0px" y="0px"
	 width="16px" height="16px" viewBox="0 0 16 16" enable-background="new 0 0 16 16" xml:space="preserve">
<path fill="#181716" d="M7.959,1c3.86,0,7,3.141,7,7s-3.14,7-7,7s-7-3.141-7-7S4.099,1,7.959,1 M7.959,0c-4.418,0-8,3.582-8,8
	s3.582,8,8,8s8-3.582,8-8S12.377,0,7.959,0L7.959,0z M8.973,4.006c0-0.557-0.451-1.008-1.008-1.008l0,0
	c-0.557,0-1.008,0.451-1.008,1.008v7.953c0,0.557,0.451,1.008,1.008,1.008l0,0c0.557,0,1.008-0.451,1.008-1.008V4.006z M11.941,8.99
	c0.557,0,1.008-0.451,1.008-1.008l0,0c0-0.557-0.451-1.008-1.008-1.008H3.988c-0.557,0-1.008,0.451-1.008,1.008l0,0
	c0,0.557,0.451,1.008,1.008,1.008H11.941z"/>
</svg>
