<?xml version="1.0" encoding="utf-8"?>
<!-- Generator: Adobe Illustrator 16.0.4, SVG Export Plug-In . SVG Version: 6.00 Build 0)  -->
<!DOCTYPE svg PUBLIC "-//W3C//DTD SVG 1.1//EN" "http://www.w3.org/Graphics/SVG/1.1/DTD/svg11.dtd">
<svg version="1.1" id="Ebene_1" xmlns="http://www.w3.org/2000/svg" xmlns:xlink="http://www.w3.org/1999/xlink" x="0px" y="0px"
	 width="16px" height="16px" viewBox="0 0 16 16" enable-background="new 0 0 16 16" xml:space="preserve">
<path fill="#181716" d="M12.803,2.197c-2.93-2.93-7.68-2.93-10.61,0c-2.93,2.93-2.93,7.68,0,10.609c2.93,2.93,7.68,2.93,10.609,0
	C15.732,9.877,15.732,5.127,12.803,2.197z M12.094,12.096c-2.539,2.538-6.654,2.538-9.192,0s-2.539-6.654,0-9.192
	s6.654-2.538,9.192,0S14.632,9.558,12.094,12.096z M10,5.542c0,1.21-0.859,2.218-2,2.449v0.493c0,0.276-0.224,0.5-0.5,0.5
	S7,8.761,7,8.484V7.542c0-0.276,0.224-0.5,0.5-0.5c0.829,0,1.5-0.672,1.5-1.5s-0.671-1.5-1.5-1.5c-0.586,0-1.087,0.339-1.334,0.828
	L6.16,4.867c-0.092,0.13-0.236,0.221-0.407,0.221c-0.28,0-0.508-0.228-0.508-0.508c0-0.056,0.015-0.106,0.032-0.157h0
	c0,0,0-0.001,0.001-0.001c0.03-0.091,0.083-0.167,0.155-0.227C5.877,3.511,6.624,3.042,7.5,3.042C8.881,3.042,10,4.161,10,5.542z
	 M8.248,11.494c0,0.414-0.335,0.75-0.75,0.75c-0.414,0-0.75-0.336-0.75-0.75s0.336-0.75,0.75-0.75
	C7.912,10.744,8.248,11.08,8.248,11.494z"/>
</svg>
