<?xml version="1.0" encoding="utf-8"?>
<!-- Generator: Adobe Illustrator 16.0.4, SVG Export Plug-In . SVG Version: 6.00 Build 0)  -->
<!DOCTYPE svg PUBLIC "-//W3C//DTD SVG 1.1//EN" "http://www.w3.org/Graphics/SVG/1.1/DTD/svg11.dtd">
<svg version="1.1" id="Ebene_1" xmlns="http://www.w3.org/2000/svg" xmlns:xlink="http://www.w3.org/1999/xlink" x="0px" y="0px"
	 width="16px" height="16px" viewBox="0 0 16 16" enable-background="new 0 0 16 16" xml:space="preserve">
<path fill-rule="evenodd" clip-rule="evenodd" fill="#181716" d="M7.959,16c-4.418,0-8-3.582-8-8s3.582-8,8-8s8,3.582,8,8
	S12.377,16,7.959,16z M11.959,7h-3V4c0-0.553-0.447-1-1-1s-1,0.447-1,1v3h-3c-0.553,0-1,0.447-1,1s0.447,1,1,1h3v3
	c0,0.553,0.447,1,1,1s1-0.447,1-1V9h3c0.553,0,1-0.447,1-1S12.512,7,11.959,7z"/>
</svg>
