<?xml version="1.0" encoding="utf-8"?>
<!-- Generator: Adobe Illustrator 16.0.4, SVG Export Plug-In . SVG Version: 6.00 Build 0)  -->
<!DOCTYPE svg PUBLIC "-//W3C//DTD SVG 1.1//EN" "http://www.w3.org/Graphics/SVG/1.1/DTD/svg11.dtd">
<svg version="1.1" id="Ebene_1" xmlns="http://www.w3.org/2000/svg" xmlns:xlink="http://www.w3.org/1999/xlink" x="0px" y="0px"
	 width="16px" height="16px" viewBox="0 0 16 16" enable-background="new 0 0 16 16" xml:space="preserve">
<path fill="#181716" d="M12.803,2.197c-2.93-2.93-7.68-2.93-10.61,0c-2.93,2.93-2.93,7.68,0,10.609c2.93,2.93,7.68,2.93,10.609,0
	C15.732,9.877,15.732,5.127,12.803,2.197z M12.094,12.096c-2.539,2.538-6.654,2.538-9.192,0s-2.539-6.654,0-9.192
	s6.654-2.538,9.192,0S14.632,9.558,12.094,12.096z M10.68,4.317c0.195,0.195,0.195,0.512,0,0.707L8.205,7.499l2.475,2.476
	c0.195,0.195,0.195,0.512,0,0.707s-0.512,0.195-0.707,0L7.498,8.206l-2.475,2.476c-0.196,0.195-0.512,0.195-0.708,0
	c-0.195-0.195-0.195-0.512,0-0.707l2.475-2.476L4.315,5.024c-0.195-0.195-0.195-0.512,0-0.707c0.196-0.195,0.512-0.195,0.708,0
	l2.475,2.475l2.475-2.475C10.168,4.122,10.484,4.122,10.68,4.317z"/>
</svg>
