<?xml version="1.0" encoding="utf-8"?>
<!-- Generator: Adobe Illustrator 16.0.4, SVG Export Plug-In . SVG Version: 6.00 Build 0)  -->
<!DOCTYPE svg PUBLIC "-//W3C//DTD SVG 1.1//EN" "http://www.w3.org/Graphics/SVG/1.1/DTD/svg11.dtd">
<svg version="1.1" id="Ebene_1" xmlns="http://www.w3.org/2000/svg" xmlns:xlink="http://www.w3.org/1999/xlink" x="0px" y="0px"
	 width="16px" height="16px" viewBox="0 0 16 16" enable-background="new 0 0 16 16" xml:space="preserve">
<path fill-rule="evenodd" clip-rule="evenodd" fill="#181716" d="M13.657,13.657c-3.124,3.124-8.189,3.124-11.313,0
	s-3.124-8.19,0-11.314s8.189-3.124,11.313,0S16.781,10.533,13.657,13.657z M10.121,4.465L8,6.586L5.879,4.465
	c-0.391-0.392-1.023-0.392-1.415,0c-0.391,0.391-0.391,1.023,0,1.414L6.586,8l-2.122,2.121c-0.391,0.391-0.391,1.023,0,1.414
	c0.391,0.392,1.023,0.392,1.415,0L8,9.414l2.121,2.121c0.391,0.392,1.023,0.392,1.415,0c0.391-0.391,0.391-1.023,0-1.414L9.414,8
	l2.122-2.121c0.391-0.391,0.391-1.023,0-1.414C11.145,4.073,10.512,4.073,10.121,4.465z"/>
</svg>
