<?xml version="1.0" encoding="utf-8"?>
<!-- Generator: Adobe Illustrator 16.0.4, SVG Export Plug-In . SVG Version: 6.00 Build 0)  -->
<!DOCTYPE svg PUBLIC "-//W3C//DTD SVG 1.1//EN" "http://www.w3.org/Graphics/SVG/1.1/DTD/svg11.dtd">
<svg version="1.1" id="Ebene_1" xmlns="http://www.w3.org/2000/svg" xmlns:xlink="http://www.w3.org/1999/xlink" x="0px" y="0px"
	 width="16px" height="16px" viewBox="0 0 16 16" enable-background="new 0 0 16 16" xml:space="preserve">
<path d="M8,0.017c-4.417,0-7.998,3.578-7.998,7.991C0.002,12.422,3.583,16,8,16s7.998-3.578,7.998-7.992
	C15.998,3.595,12.417,0.017,8,0.017z M8.038,13.664c-0.654,0-1.185-0.53-1.185-1.184c0-0.654,0.531-1.184,1.185-1.184
	c0.654,0,1.185,0.529,1.185,1.184C9.223,13.134,8.692,13.664,8.038,13.664z M11.208,7.341C10.836,7.88,10.37,8.332,9.811,8.697
	c-0.305,0.234-0.505,0.471-0.6,0.708C9.116,9.643,8.922,10.385,8,10.385S6.938,9.521,7.033,9.219c0.045-0.144,0.1-0.268,0.165-0.372
	C7.4,8.522,7.804,8.128,8.409,7.662c0.355-0.289,0.638-0.602,0.851-0.937c0.212-0.334,0.318-0.709,0.318-1.124
	c0-0.46-0.121-0.82-0.363-1.079C8.972,4.262,8.626,4.132,8.176,4.132c-0.37,0-0.684,0.11-0.941,0.33
	C6.734,4.906,6.812,5.578,5.75,5.578c-1.047,0-1.046-0.844-0.821-1.4c0.158-0.4,0.397-0.745,0.718-0.998
	c0.647-0.51,1.491-0.765,2.53-0.765c1.119,0,1.998,0.284,2.635,0.852c0.637,0.566,0.956,1.338,0.956,2.312
	C11.767,6.213,11.581,6.801,11.208,7.341z"/>
</svg>
