<?xml version="1.0" encoding="utf-8"?>
<!-- Generator: Adobe Illustrator 16.0.4, SVG Export Plug-In . SVG Version: 6.00 Build 0)  -->
<!DOCTYPE svg PUBLIC "-//W3C//DTD SVG 1.1//EN" "http://www.w3.org/Graphics/SVG/1.1/DTD/svg11.dtd">
<svg version="1.1" id="Ebene_1" xmlns="http://www.w3.org/2000/svg" xmlns:xlink="http://www.w3.org/1999/xlink" x="0px" y="0px"
	 width="16px" height="16px" viewBox="0 0 16 16" enable-background="new 0 0 16 16" xml:space="preserve">
<path fill-rule="evenodd" clip-rule="evenodd" d="M5.014,9c-0.553,0-1-0.447-1-1s0.447-1,1-1s1,0.447,1,1S5.566,9,5.014,9z M8.014,9
	c-0.553,0-1-0.447-1-1s0.447-1,1-1s1,0.447,1,1S8.566,9,8.014,9z M11.014,9c-0.553,0-1-0.447-1-1s0.447-1,1-1s1,0.447,1,1
	S11.566,9,11.014,9z M12.963,3.05c2.729,2.729,2.729,7.171,0,9.9c-2.729,2.729-7.17,2.729-9.899,0c-2.729-2.729-2.729-7.171,0-9.9
	C5.793,0.321,10.233,0.321,12.963,3.05 M13.67,2.343c-3.124-3.124-8.189-3.124-11.313,0s-3.124,8.19,0,11.314s8.189,3.124,11.313,0
	S16.794,5.467,13.67,2.343L13.67,2.343z"/>
</svg>
