<?xml version="1.0" encoding="utf-8"?>
<!-- Generator: Adobe Illustrator 16.0.4, SVG Export Plug-In . SVG Version: 6.00 Build 0)  -->
<!DOCTYPE svg PUBLIC "-//W3C//DTD SVG 1.1//EN" "http://www.w3.org/Graphics/SVG/1.1/DTD/svg11.dtd">
<svg version="1.1" id="Ebene_1" xmlns="http://www.w3.org/2000/svg" xmlns:xlink="http://www.w3.org/1999/xlink" x="0px" y="0px"
	 width="16px" height="16px" viewBox="0 0 16 16" enable-background="new 0 0 16 16" xml:space="preserve">
<path fill="#181716" d="M8,1c3.86,0,7,3.141,7,7s-3.14,7-7,7s-7-3.141-7-7S4.14,1,8,1 M8,0C3.582,0,0,3.582,0,8s3.582,8,8,8
	s8-3.582,8-8S12.418,0,8,0L8,0z M11.982,8.99c0.557,0,1.008-0.451,1.008-1.008l0,0c0-0.557-0.451-1.008-1.008-1.008H4.029
	c-0.557,0-1.008,0.451-1.008,1.008l0,0c0,0.557,0.451,1.008,1.008,1.008H11.982z"/>
</svg>
