<?xml version="1.0" encoding="utf-8"?>
<!-- Generator: Adobe Illustrator 16.0.4, SVG Export Plug-In . SVG Version: 6.00 Build 0)  -->
<!DOCTYPE svg PUBLIC "-//W3C//DTD SVG 1.1//EN" "http://www.w3.org/Graphics/SVG/1.1/DTD/svg11.dtd">
<svg version="1.1" id="Ebene_1" xmlns="http://www.w3.org/2000/svg" xmlns:xlink="http://www.w3.org/1999/xlink" x="0px" y="0px"
	 width="16px" height="16px" viewBox="0 0 16 16" enable-background="new 0 0 16 16" xml:space="preserve">
<path fill="#181716" d="M12.95,3.05c2.729,2.729,2.729,7.171,0,9.9c-2.729,2.729-7.17,2.729-9.899,0c-2.729-2.729-2.729-7.171,0-9.9
	C5.779,0.321,10.22,0.321,12.95,3.05 M13.657,2.343c-3.124-3.124-8.189-3.124-11.313,0s-3.124,8.19,0,11.314s8.189,3.124,11.313,0
	S16.781,5.467,13.657,2.343L13.657,2.343z M11.541,5.893c0.394-0.394,0.394-1.032,0-1.426l0,0c-0.394-0.394-1.032-0.394-1.425,0
	l-5.624,5.624c-0.394,0.394-0.394,1.032,0,1.426l0,0c0.394,0.394,1.032,0.394,1.425,0L11.541,5.893z M10.116,11.517
	c0.394,0.394,1.032,0.394,1.425,0l0,0c0.394-0.394,0.394-1.032,0-1.426L5.917,4.467c-0.394-0.394-1.032-0.394-1.425,0l0,0
	c-0.394,0.395-0.394,1.032,0,1.426L10.116,11.517z"/>
</svg>
