<?xml version="1.0" encoding="utf-8"?>
<!-- Generator: Adobe Illustrator 16.0.4, SVG Export Plug-In . SVG Version: 6.00 Build 0)  -->
<!DOCTYPE svg PUBLIC "-//W3C//DTD SVG 1.1//EN" "http://www.w3.org/Graphics/SVG/1.1/DTD/svg11.dtd">
<svg version="1.1" id="Ebene_1" xmlns="http://www.w3.org/2000/svg" xmlns:xlink="http://www.w3.org/1999/xlink" x="0px" y="0px"
	 width="15.999px" height="16px" viewBox="0 0 15.999 16" enable-background="new 0 0 15.999 16" xml:space="preserve">
<path fill="#181716" d="M12.802,2.197c-2.93-2.93-7.68-2.93-10.61,0c-2.93,2.93-2.93,7.68,0,10.609c2.93,2.93,7.68,2.93,10.609,0
	C15.731,9.877,15.731,5.127,12.802,2.197z M12.093,12.096c-2.539,2.538-6.654,2.538-9.192,0s-2.539-6.654,0-9.192
	s6.654-2.538,9.192,0S14.631,9.558,12.093,12.096z M11.679,4.317c0.195,0.195,0.195,0.512,0,0.707l-5.182,5.182L3.314,7.024
	c-0.195-0.195-0.195-0.512,0-0.707c0.196-0.195,0.512-0.195,0.708,0l2.475,2.475l4.475-4.475
	C11.167,4.122,11.483,4.122,11.679,4.317z"/>
</svg>
