<?xml version="1.0" encoding="utf-8"?>
<!-- Generator: Adobe Illustrator 16.0.4, SVG Export Plug-In . SVG Version: 6.00 Build 0)  -->
<!DOCTYPE svg PUBLIC "-//W3C//DTD SVG 1.1//EN" "http://www.w3.org/Graphics/SVG/1.1/DTD/svg11.dtd">
<svg version="1.1" id="Ebene_1" xmlns="http://www.w3.org/2000/svg" xmlns:xlink="http://www.w3.org/1999/xlink" x="0px" y="0px"
	 width="16px" height="16px" viewBox="0 0 16 16" enable-background="new 0 0 16 16" xml:space="preserve">
<path fill-rule="evenodd" clip-rule="evenodd" fill="#181716" d="M7.5,0C3.357,0,0,3.357,0,7.5S3.357,15,7.5,15S15,11.643,15,7.5
	S11.643,0,7.5,0z M7.5,14C3.91,14,1,11.09,1,7.5S3.91,1,7.5,1S14,3.91,14,7.5S11.09,14,7.5,14z M9.975,9.976
	c-0.195,0.195-0.512,0.195-0.707,0L7.146,7.854c-0.014-0.014-0.02-0.031-0.031-0.047C7.087,7.771,7.057,7.735,7.039,7.692
	C7.014,7.631,7,7.565,7,7.501C7,7.5,7,7.5,7,7.5v-5C7,2.224,7.224,2,7.5,2S8,2.224,8,2.5v4.794l1.975,1.975
	C10.17,9.464,10.17,9.78,9.975,9.976z"/>
</svg>
