<?xml version="1.0" encoding="utf-8"?>
<!-- Generator: Adobe Illustrator 16.0.4, SVG Export Plug-In . SVG Version: 6.00 Build 0)  -->
<!DOCTYPE svg PUBLIC "-//W3C//DTD SVG 1.1//EN" "http://www.w3.org/Graphics/SVG/1.1/DTD/svg11.dtd">
<svg version="1.1" id="Ebene_1" xmlns="http://www.w3.org/2000/svg" xmlns:xlink="http://www.w3.org/1999/xlink" x="0px" y="0px"
	 width="16px" height="16px" viewBox="0 0 16 16" enable-background="new 0 0 16 16" xml:space="preserve">
<path fill-rule="evenodd" clip-rule="evenodd" fill="#181716" d="M8,16c-4.418,0-8-3.582-8-8s3.582-8,8-8s8,3.582,8,8
	S12.418,16,8,16z M8,2C4.687,2,2,4.687,2,8s2.687,6,6,6s6-2.687,6-6S11.313,2,8,2z M9.096,10.473l-1.69-1.689
	C7.256,8.67,7.137,8.526,7.07,8.349C6.992,8.176,6.975,7.99,7,7.805V4c0-0.553,0.447-1,1-1s1,0.447,1,1v3.549l1.51,1.51
	c0.391,0.391,0.391,1.023,0,1.414S9.486,10.863,9.096,10.473z"/>
</svg>
