<?xml version="1.0" encoding="utf-8"?>
<!-- Generator: Adobe Illustrator 16.0.4, SVG Export Plug-In . SVG Version: 6.00 Build 0)  -->
<!DOCTYPE svg PUBLIC "-//W3C//DTD SVG 1.1//EN" "http://www.w3.org/Graphics/SVG/1.1/DTD/svg11.dtd">
<svg version="1.1" id="Ebene_1" xmlns="http://www.w3.org/2000/svg" xmlns:xlink="http://www.w3.org/1999/xlink" x="0px" y="0px"
	 width="16px" height="16px" viewBox="0 0 16 16" enable-background="new 0 0 16 16" xml:space="preserve">
<path fill="#181716" d="M3,3.35l1.887,1.179l5.662,3.535l-1.133,0.69L3,12.666V3.35 M2.566,1.995C2.248,1.995,2,2.315,2,2.667
	c0,2.494,0,8.468,0,10.812c0,0.396,0.201,0.525,0.443,0.525c0.182,0,0.385-0.072,0.545-0.16c2.061-1.256,6.779-4.132,8.666-5.282
	c0.352-0.215,0.521-0.697,0.021-0.973C9.779,6.404,4.922,3.372,2.902,2.11C2.787,2.03,2.674,1.995,2.566,1.995L2.566,1.995z
	 M12.988,1.99h-1.023v12.017h1.023V1.99z"/>
</svg>
