<?xml version="1.0" encoding="utf-8"?>
<!-- Generator: Adobe Illustrator 16.0.4, SVG Export Plug-In . SVG Version: 6.00 Build 0)  -->
<!DOCTYPE svg PUBLIC "-//W3C//DTD SVG 1.1//EN" "http://www.w3.org/Graphics/SVG/1.1/DTD/svg11.dtd">
<svg version="1.1" id="Ebene_1" xmlns="http://www.w3.org/2000/svg" xmlns:xlink="http://www.w3.org/1999/xlink" x="0px" y="0px"
	 width="16px" height="16px" viewBox="0 0 16 16" enable-background="new 0 0 16 16" xml:space="preserve">
<path d="M3.031,6C2.328,5.719,2.317,5.062,2.504,4.629C3.42,2.496,5.529,1,8,1c1.658,0,3.139,0.69,4.221,1.779L14,1v5h-0.102h-2.041
	H9l1.814-1.815C10.096,3.458,9.105,3,8,3C6.371,3,4.98,3.979,4.358,5.376C4.27,5.576,3.734,6.281,3.031,6z M1.795,12.021
	C1.305,11.486,1,10.781,1,10c0-1.656,1.342-3,3-3c1.656,0,3,1.344,3,3c0,0.782-0.307,1.488-0.797,2.022
	c0.506,0.053,0.956,0.286,1.279,0.646c-0.294,0.326-0.479,0.748-0.506,1.215C6.916,13.389,6.512,13,6,13H2c-0.553,0-1,0.447-1,1v2H0
	v-2C0,12.966,0.788,12.125,1.795,12.021z M4,8c-1.105,0-2,0.896-2,2s0.895,2,2,2c1.104,0,2-0.896,2-2S5.104,8,4,8z M8,14v2h8v-2
	c0-1.037-0.793-1.88-1.805-1.98c0.49-0.533,0.795-1.238,0.795-2.02c0-1.656-1.343-3-3-3c-1.656,0-3,1.344-3,3
	c0,0.782,0.307,1.487,0.797,2.021C8.783,12.129,8,12.969,8,14z"/>
</svg>
