<?xml version="1.0" encoding="utf-8"?>
<!-- Generator: Adobe Illustrator 16.0.4, SVG Export Plug-In . SVG Version: 6.00 Build 0)  -->
<!DOCTYPE svg PUBLIC "-//W3C//DTD SVG 1.1//EN" "http://www.w3.org/Graphics/SVG/1.1/DTD/svg11.dtd">
<svg version="1.1" id="Ebene_1" xmlns="http://www.w3.org/2000/svg" xmlns:xlink="http://www.w3.org/1999/xlink" x="0px" y="0px"
	 width="16px" height="16px" viewBox="0 0 16 16" enable-background="new 0 0 16 16" xml:space="preserve">
<path fill="#181716" d="M0.998,4.343C2.483,5.206,4.78,6.539,6.516,7.545l0.875,0.507l-0.866,0.49L4.705,9.573l-3.707,2.102V4.343
	 M8.018,4.344l5.322,3.088l1.068,0.62l-6.391,3.622V9.412V7.696V6.68V4.344 M7.527,2.981c-0.287,0-0.51,0.268-0.51,0.562
	c0,0.758,0,1.898,0,3.137C4.982,5.5,2.176,3.871,0.811,3.078C0.707,3.011,0.604,2.981,0.509,2.981c-0.288,0-0.511,0.268-0.511,0.562
	c0,2.085,0,7.078,0,9.037c0,0.331,0.181,0.439,0.398,0.439c0.163,0,0.348-0.061,0.492-0.134c1.391-0.789,4.133-2.342,6.129-3.473
	c0,1.273,0,2.434,0,3.168c0,0.331,0.181,0.439,0.398,0.439c0.163,0,0.347-0.061,0.49-0.134c1.854-1.051,6.096-3.454,7.791-4.414
	c0.316-0.18,0.471-0.584,0.021-0.814c-1.705-0.989-6.074-3.523-7.891-4.578C7.725,3.011,7.623,2.981,7.527,2.981L7.527,2.981z"/>
</svg>
