<?xml version="1.0" encoding="utf-8"?>
<!-- Generator: Adobe Illustrator 16.0.4, SVG Export Plug-In . SVG Version: 6.00 Build 0)  -->
<!DOCTYPE svg PUBLIC "-//W3C//DTD SVG 1.1//EN" "http://www.w3.org/Graphics/SVG/1.1/DTD/svg11.dtd">
<svg version="1.1" id="Ebene_1" xmlns="http://www.w3.org/2000/svg" xmlns:xlink="http://www.w3.org/1999/xlink" x="0px" y="0px"
	 width="16px" height="16px" viewBox="0 0 16 16" enable-background="new 0 0 16 16" xml:space="preserve">
<path fill-rule="evenodd" clip-rule="evenodd" fill="#181716" d="M6,13.5C6,13.776,5.776,14,5.5,14l0,0C5.224,14,5,13.776,5,13.5
	v-11C5,2.224,5.224,2,5.5,2l0,0C5.776,2,6,2.224,6,2.5V13.5z M11,2.5C11,2.224,10.776,2,10.5,2l0,0C10.224,2,10,2.224,10,2.5v11
	c0,0.276,0.224,0.5,0.5,0.5l0,0c0.276,0,0.5-0.224,0.5-0.5V2.5z"/>
</svg>
