<?xml version="1.0" encoding="utf-8"?>
<!-- Generator: Adobe Illustrator 16.0.4, SVG Export Plug-In . SVG Version: 6.00 Build 0)  -->
<!DOCTYPE svg PUBLIC "-//W3C//DTD SVG 1.1//EN" "http://www.w3.org/Graphics/SVG/1.1/DTD/svg11.dtd">
<svg version="1.1" id="Ebene_1" xmlns="http://www.w3.org/2000/svg" xmlns:xlink="http://www.w3.org/1999/xlink" x="0px" y="0px"
	 width="16px" height="16px" viewBox="0 0 16 16" enable-background="new 0 0 16 16" xml:space="preserve">
<path fill-rule="evenodd" clip-rule="evenodd" d="M4.799,8.185c0.184,0.184,0.184,0.481,0,0.665l-1.994,1.997
	c-0.184,0.184-0.482,0.184-0.666,0c0-0.002,0-0.002-0.001-0.004l-2.001-2c-0.184-0.184-0.184-0.481,0-0.665
	c0.184-0.184,0.481-0.184,0.666,0l1.67,1.67l1.662-1.663C4.318,8.001,4.615,8.001,4.799,8.185z M12.027,7.497
	c0-0.273-0.222-0.495-0.495-0.495H5.489c-0.273,0-0.495,0.222-0.495,0.495s0.222,0.495,0.495,0.495h6.043
	C11.806,7.992,12.027,7.77,12.027,7.497z M8.496,1.006c-3.59,0-6.499,2.909-6.5,6.498c0,0.001-0.001,0.002-0.001,0.003
	c0,0.276,0.224,0.5,0.5,0.5s0.499-0.224,0.5-0.5h0.001c0.001-3.037,2.463-5.498,5.5-5.498s5.5,2.462,5.5,5.5
	c0,3.035-2.459,5.496-5.493,5.5c-0.003,0-0.005-0.002-0.008-0.002c-0.276,0-0.5,0.224-0.5,0.5s0.224,0.5,0.5,0.5h0.001
	c3.59,0,6.5-2.91,6.5-6.5C14.996,3.917,12.086,1.006,8.496,1.006z"/>
</svg>
