<?xml version="1.0" encoding="utf-8"?>
<!-- Generator: Adobe Illustrator 16.0.4, SVG Export Plug-In . SVG Version: 6.00 Build 0)  -->
<!DOCTYPE svg PUBLIC "-//W3C//DTD SVG 1.1//EN" "http://www.w3.org/Graphics/SVG/1.1/DTD/svg11.dtd">
<svg version="1.1" id="Ebene_1" xmlns="http://www.w3.org/2000/svg" xmlns:xlink="http://www.w3.org/1999/xlink" x="0px" y="0px"
	 width="16px" height="16px" viewBox="0 0 16 16" enable-background="new 0 0 16 16" xml:space="preserve">
<path fill-rule="evenodd" clip-rule="evenodd" d="M44.923,7.5c0,3.59-2.91,6.5-6.5,6.5c-0.277,0-0.5-0.224-0.5-0.5
	s0.223-0.5,0.5-0.5c0.002,0,0.004,0.002,0.008,0.002c3.033-0.004,5.492-2.465,5.492-5.5c0-3.038-2.463-5.5-5.5-5.5
	s-5.498,2.461-5.5,5.498c-0.001,0.276-0.225,0.5-0.5,0.5c-0.277,0-0.5-0.224-0.5-0.5c0-0.001,0-0.002,0-0.003
	C31.925,3.908,34.834,1,38.423,1C42.013,1,44.923,3.91,44.923,7.5z M38.438,3c-0.276,0-0.5,0.224-0.5,0.5v4
	c0,0.157,0.076,0.291,0.189,0.382l2.078,2.079c0.195,0.195,0.512,0.195,0.707,0s0.195-0.512,0-0.707l-1.975-1.975V3.5
	C38.938,3.224,38.715,3,38.438,3z M34.135,8.214l-1.67,1.67l-1.662-1.663c-0.184-0.184-0.481-0.184-0.665,0s-0.184,0.481,0,0.665
	l1.995,1.996c0.184,0.184,0.481,0.184,0.665,0c0-0.001,0-0.002,0.002-0.003l2-2c0.184-0.184,0.184-0.481,0-0.665
	C34.616,8.031,34.319,8.031,34.135,8.214z M15.881,8.214c-0.184-0.184-0.481-0.184-0.665,0l-1.67,1.67l-1.662-1.663
	c-0.184-0.184-0.481-0.184-0.665,0s-0.184,0.481,0,0.665l1.995,1.996c0.184,0.184,0.481,0.184,0.665,0c0-0.001,0-0.002,0.001-0.003
	l2-2C16.065,8.696,16.065,8.398,15.881,8.214z M7.5,13.007c-0.003,0-0.005,0.002-0.008,0.002C4.458,13.005,2,10.544,2,7.509
	c0-3.038,2.462-5.5,5.5-5.5c3.037,0,5.499,2.461,5.5,5.498h0c0,0.276,0.224,0.5,0.5,0.5s0.5-0.224,0.5-0.5c0-0.001,0-0.002,0-0.003
	c-0.001-3.589-2.911-6.498-6.5-6.498c-3.59,0-6.5,2.91-6.5,6.5c0,3.59,2.91,6.5,6.5,6.5h0c0.276,0,0.5-0.224,0.5-0.5
	S7.777,13.007,7.5,13.007z M7.972,7.279V3.5c0-0.276-0.224-0.5-0.5-0.5s-0.5,0.224-0.5,0.5v4c0,0.157,0.076,0.291,0.189,0.382
	L9.24,9.961c0.195,0.195,0.512,0.195,0.707,0s0.195-0.512,0-0.707L7.972,7.279z"/>
</svg>
