<?xml version="1.0" encoding="utf-8"?>
<!-- Generator: Adobe Illustrator 16.0.4, SVG Export Plug-In . SVG Version: 6.00 Build 0)  -->
<!DOCTYPE svg PUBLIC "-//W3C//DTD SVG 1.1//EN" "http://www.w3.org/Graphics/SVG/1.1/DTD/svg11.dtd">
<svg version="1.1" id="Ebene_1" xmlns="http://www.w3.org/2000/svg" xmlns:xlink="http://www.w3.org/1999/xlink" x="0px" y="0px"
	 width="16px" height="16px" viewBox="0 0 16 16" enable-background="new 0 0 16 16" xml:space="preserve">
<path d="M13.104,3.912c-0.14,0-0.265-0.057-0.355-0.148l-0.004,0.004v0C10.597,1.62,7.115,1.619,4.968,3.766l-0.001,0
	c-0.195,0.194-0.511,0.195-0.706,0c-0.196-0.195-0.196-0.512,0-0.707c0,0,0.002,0,0.002-0.001C6.8,0.521,10.907,0.52,13.446,3.051
	c0.096,0.091,0.157,0.218,0.157,0.361C13.604,3.688,13.38,3.912,13.104,3.912z M5.294,5.05l-2.352,0V2.689
	c0-0.26-0.211-0.471-0.471-0.471c-0.26,0-0.47,0.211-0.47,0.471v2.829c0,0.002,0,0.002-0.002,0.003C2,5.78,2.212,5.992,2.471,5.992
	L5.293,5.99c0.26,0,0.471-0.211,0.471-0.471C5.764,5.26,5.554,5.05,5.294,5.05z M7.453,12.516c0,0.276-0.224,0.5-0.5,0.5H6H4.953H2
	c-0.553,0-1,0.447-1,1v1.469H0.997C0.997,15.49,1,15.494,1,15.5C1,15.776,0.776,16,0.5,16S0,15.776,0,15.5
	c0-0.006,0.003-0.01,0.003-0.016H0v-1.469c0-1.031,0.785-1.871,1.788-1.979c-0.49-0.534-0.796-1.239-0.796-2.021
	c0-1.656,1.343-3,3-3c1.656,0,3,1.344,3,3c0,0.772-0.302,1.469-0.78,2h0.741C7.229,12.016,7.453,12.239,7.453,12.516z M6,10.016
	c0-1.104-0.896-2-2-2s-2,0.896-2,2s0.896,2,2,2S6,11.12,6,10.016z M16,15.484h-0.003c0,0.006,0.003,0.01,0.003,0.016
	c0,0.276-0.224,0.5-0.5,0.5S15,15.776,15,15.5c0-0.006,0.003-0.01,0.003-0.016H15v-1.5c0-0.553-0.447-1-1-1h-4c-0.553,0-1,0.447-1,1
	v1.5H8.997C8.997,15.49,9,15.494,9,15.5C9,15.776,8.776,16,8.5,16S8,15.776,8,15.5c0-0.006,0.003-0.01,0.003-0.016H8v-1.5
	c0-1.031,0.785-1.871,1.788-1.979c-0.49-0.534-0.796-1.239-0.796-2.021c0-1.656,1.343-3,3-3c1.656,0,3,1.344,3,3
	c0,0.781-0.307,1.486-0.795,2.02c1.01,0.101,1.803,0.943,1.803,1.98V15.484z M14,9.984c0-1.104-0.896-2-2-2s-2,0.896-2,2
	s0.896,2,2,2S14,11.089,14,9.984z"/>
</svg>
