<?xml version="1.0" encoding="utf-8"?>
<!-- Generator: Adobe Illustrator 16.0.4, SVG Export Plug-In . SVG Version: 6.00 Build 0)  -->
<!DOCTYPE svg PUBLIC "-//W3C//DTD SVG 1.1//EN" "http://www.w3.org/Graphics/SVG/1.1/DTD/svg11.dtd">
<svg version="1.1" id="Ebene_1" xmlns="http://www.w3.org/2000/svg" xmlns:xlink="http://www.w3.org/1999/xlink" x="0px" y="0px"
	 width="16px" height="16px" viewBox="0 0 16 16" enable-background="new 0 0 16 16" xml:space="preserve">
<path fill-rule="evenodd" clip-rule="evenodd" d="M14.923,7.5c0,3.59-2.91,6.5-6.5,6.5c-0.277,0-0.5-0.224-0.5-0.5
	s0.223-0.5,0.5-0.5c0.002,0,0.004,0.002,0.008,0.002c3.033-0.004,5.492-2.465,5.492-5.5c0-3.038-2.463-5.5-5.5-5.5
	S2.925,4.464,2.923,7.5C2.922,7.776,2.698,8,2.423,8c-0.277,0-0.5-0.224-0.5-0.5c0-0.001,0-0.002,0-0.003
	C1.925,3.908,4.834,1,8.423,1C12.013,1,14.923,3.91,14.923,7.5z M8.438,3c-0.276,0-0.5,0.224-0.5,0.5v4
	c0,0.157,0.076,0.291,0.189,0.382l2.078,2.079c0.195,0.195,0.512,0.195,0.707,0s0.195-0.512,0-0.707L8.938,7.279V3.5
	C8.938,3.224,8.715,3,8.438,3z M4.135,8.214l-1.67,1.67L0.803,8.222c-0.184-0.184-0.481-0.184-0.665,0s-0.184,0.481,0,0.665
	l1.995,1.996c0.184,0.184,0.481,0.184,0.665,0c0-0.001,0-0.002,0.002-0.003l2-2c0.184-0.184,0.184-0.481,0-0.665
	C4.616,8.031,4.319,8.031,4.135,8.214z M-14.119,8.214c-0.184-0.184-0.481-0.184-0.665,0l-1.67,1.67l-1.662-1.663
	c-0.184-0.184-0.481-0.184-0.665,0s-0.184,0.481,0,0.665l1.995,1.996c0.184,0.184,0.481,0.184,0.665,0c0-0.001,0-0.002,0.001-0.003
	l2-2C-13.935,8.696-13.935,8.398-14.119,8.214z M-22.5,13.007c-0.003,0-0.005,0.002-0.008,0.002C-25.542,13.005-28,10.544-28,7.509
	c0-3.038,2.462-5.5,5.5-5.5c3.037,0,5.499,2.461,5.5,5.498h0c0,0.276,0.224,0.5,0.5,0.5s0.5-0.224,0.5-0.5c0-0.001,0-0.002,0-0.003
	c-0.001-3.589-2.911-6.498-6.5-6.498c-3.59,0-6.5,2.91-6.5,6.5c0,3.59,2.91,6.5,6.5,6.5h0c0.276,0,0.5-0.224,0.5-0.5
	S-22.223,13.007-22.5,13.007z M-22.028,7.279V3.5c0-0.276-0.224-0.5-0.5-0.5s-0.5,0.224-0.5,0.5v4c0,0.157,0.076,0.291,0.189,0.382
	l2.078,2.079c0.195,0.195,0.512,0.195,0.707,0s0.195-0.512,0-0.707L-22.028,7.279z"/>
</svg>
