<?xml version="1.0" encoding="utf-8"?>
<!-- Generator: Adobe Illustrator 16.0.4, SVG Export Plug-In . SVG Version: 6.00 Build 0)  -->
<!DOCTYPE svg PUBLIC "-//W3C//DTD SVG 1.1//EN" "http://www.w3.org/Graphics/SVG/1.1/DTD/svg11.dtd">
<svg version="1.1" id="Ebene_1" xmlns="http://www.w3.org/2000/svg" xmlns:xlink="http://www.w3.org/1999/xlink" x="0px" y="0px"
	 width="16px" height="16px" viewBox="0 0 16 16" enable-background="new 0 0 16 16" xml:space="preserve">
<path fill-rule="evenodd" clip-rule="evenodd" d="M3,11.5v4C3,15.777,2.776,16,2.5,16h-2C0.224,16,0,15.777,0,15.5
	C0,15.225,0.224,15,0.5,15H2v-1H1.5C1.224,14,1,13.777,1,13.5C1,13.225,1.224,13,1.5,13H2v-1H0.5C0.224,12,0,11.777,0,11.5
	C0,11.225,0.224,11,0.5,11h2C2.776,11,3,11.225,3,11.5z M7,11.5v4C7,15.777,6.776,16,6.5,16h-2C4.224,16,4,15.777,4,15.5v-4
	C4,11.225,4.224,11,4.5,11h2C6.776,11,7,11.225,7,11.5z M6,12H5v3h1V12z M5.798,7.196c-0.184-0.184-0.481-0.184-0.665,0L3.471,8.859
	l-1.67-1.67c-0.184-0.184-0.481-0.184-0.665,0c-0.184,0.184-0.184,0.481,0,0.665l2,2c0.001,0.002,0.001,0.002,0.001,0.004
	c0.184,0.184,0.481,0.184,0.665,0l1.995-1.997C5.982,7.677,5.982,7.379,5.798,7.196z M9.5,0C5.912,0,3.002,2.908,3,6.497
	C3,6.498,3,6.499,3,6.5C3,6.776,3.224,7,3.5,7S4,6.776,4,6.5h0c0.001-3.037,2.463-5.498,5.5-5.498c3.038,0,5.5,2.462,5.5,5.5
	c0,3.035-2.458,5.496-5.493,5.5C9.505,12.002,9.503,12,9.5,12C9.224,12,9,12.224,9,12.5S9.224,13,9.5,13h0c3.59,0,6.5-2.91,6.5-6.5
	C16,2.91,13.09,0,9.5,0z M9.5,2C9.224,2,9,2.224,9,2.5v4c0,0.157,0.076,0.291,0.189,0.382l2.078,2.079
	c0.195,0.195,0.512,0.195,0.707,0s0.195-0.512,0-0.707L10,6.279V2.5C10,2.224,9.776,2,9.5,2z"/>
</svg>
