<?xml version="1.0" encoding="utf-8"?>
<!-- Generator: Adobe Illustrator 16.0.4, SVG Export Plug-In . SVG Version: 6.00 Build 0)  -->
<!DOCTYPE svg PUBLIC "-//W3C//DTD SVG 1.1//EN" "http://www.w3.org/Graphics/SVG/1.1/DTD/svg11.dtd">
<svg version="1.1" id="Ebene_1" xmlns="http://www.w3.org/2000/svg" xmlns:xlink="http://www.w3.org/1999/xlink" x="0px" y="0px"
	 width="16px" height="16px" viewBox="0 0 16 16" enable-background="new 0 0 16 16" xml:space="preserve">
<path fill-rule="evenodd" clip-rule="evenodd" d="M13.075,10.274L10.412,7h1.487C11.436,4.718,9.419,3,7,3C4.238,3,2,5.238,2,8
	s2.238,5,5,5c0.625,0,1,0.469,1,1.016S7.625,15,7,15c-3.866,0-7-3.134-7-7s3.134-7,7-7c3.523,0,6.41,2.611,6.899,6h1.744
	L13.075,10.274z M8,4v3h1.48l1.562,2H8v3H6V9H3V7h3V4H8z"/>
</svg>
