<?xml version="1.0" encoding="utf-8"?>
<!-- Generator: Adobe Illustrator 16.0.4, SVG Export Plug-In . SVG Version: 6.00 Build 0)  -->
<!DOCTYPE svg PUBLIC "-//W3C//DTD SVG 1.1//EN" "http://www.w3.org/Graphics/SVG/1.1/DTD/svg11.dtd">
<svg version="1.1" id="Ebene_1" xmlns="http://www.w3.org/2000/svg" xmlns:xlink="http://www.w3.org/1999/xlink" x="0px" y="0px"
	 width="16px" height="16px" viewBox="0 0 16 16" enable-background="new 0 0 16 16" xml:space="preserve">
<path fill-rule="evenodd" clip-rule="evenodd" fill="#181716" d="M0.279,8.344c1.705,0.989,6.074,3.523,7.889,4.578
	c0.418,0.271,0.812-0.074,0.812-0.465c0-0.758,0-1.898,0-3.137c2.033,1.18,4.842,2.809,6.207,3.602
	c0.416,0.271,0.811-0.074,0.811-0.465c0-2.085,0-7.078,0-9.037c0-0.578-0.553-0.477-0.889-0.305
	c-1.393,0.789-4.133,2.342-6.129,3.473c0-1.273,0-2.434,0-3.168c0-0.578-0.553-0.477-0.891-0.305
	C6.238,4.166,1.994,6.569,0.299,7.529C-0.018,7.709-0.17,8.113,0.279,8.344z"/>
</svg>
