<?xml version="1.0" encoding="utf-8"?>
<!-- Generator: Adobe Illustrator 16.0.4, SVG Export Plug-In . SVG Version: 6.00 Build 0)  -->
<!DOCTYPE svg PUBLIC "-//W3C//DTD SVG 1.1//EN" "http://www.w3.org/Graphics/SVG/1.1/DTD/svg11.dtd">
<svg version="1.1" id="Ebene_1" xmlns="http://www.w3.org/2000/svg" xmlns:xlink="http://www.w3.org/1999/xlink" x="0px" y="0px"
	 width="16px" height="16px" viewBox="0 0 16 16" enable-background="new 0 0 16 16" xml:space="preserve">
<path fill-rule="evenodd" clip-rule="evenodd" d="M15.857,8.843l-2.001,2c-0.001,0.002-0.001,0.002-0.001,0.004
	c-0.184,0.184-0.482,0.184-0.666,0L11.195,8.85c-0.184-0.184-0.184-0.481,0-0.665s0.48-0.184,0.664,0l1.662,1.663l1.67-1.67
	c0.185-0.184,0.482-0.184,0.666,0C16.041,8.362,16.041,8.659,15.857,8.843z M10.505,7.002H7.979V4.473
	c0-0.273-0.223-0.495-0.495-0.495S6.988,4.2,6.988,4.473v2.529H4.462c-0.273,0-0.495,0.222-0.495,0.495s0.222,0.495,0.495,0.495
	h2.526v2.524c0,0.273,0.223,0.496,0.495,0.496s0.495-0.223,0.495-0.496V7.992h2.526C10.778,7.992,11,7.77,11,7.497
	S10.778,7.002,10.505,7.002z M7.499,13.007c-0.003,0-0.005,0.002-0.008,0.002c-3.034-0.004-5.493-2.465-5.493-5.5
	c0-3.038,2.463-5.5,5.5-5.5s5.499,2.461,5.5,5.498h0.001c0.001,0.276,0.224,0.5,0.5,0.5s0.5-0.224,0.5-0.5
	c0-0.001-0.001-0.002-0.001-0.003c-0.001-3.589-2.91-6.498-6.5-6.498s-6.5,2.91-6.5,6.5c0,3.59,2.91,6.5,6.5,6.5h0.001
	c0.276,0,0.5-0.224,0.5-0.5S7.775,13.007,7.499,13.007z"/>
</svg>
