<?xml version="1.0" encoding="utf-8"?>
<!-- Generator: Adobe Illustrator 16.0.4, SVG Export Plug-In . SVG Version: 6.00 Build 0)  -->
<!DOCTYPE svg PUBLIC "-//W3C//DTD SVG 1.1//EN" "http://www.w3.org/Graphics/SVG/1.1/DTD/svg11.dtd">
<svg version="1.1" id="Ebene_1" xmlns="http://www.w3.org/2000/svg" xmlns:xlink="http://www.w3.org/1999/xlink" x="0px" y="0px"
	 width="16px" height="16px" viewBox="0 0 16 16" enable-background="new 0 0 16 16" xml:space="preserve">
<path fill-rule="evenodd" clip-rule="evenodd" d="M3,11.5v4C3,15.776,2.776,16,2.5,16S2,15.776,2,15.5V12H1.5
	C1.224,12,1,11.776,1,11.5C1,11.225,1.224,11,1.5,11h1C2.776,11,3,11.225,3,11.5z M6.5,12C6.776,12,7,11.776,7,11.5
	C7,11.225,6.776,11,6.5,11h-2C4.224,11,4,11.225,4,11.5v2C4,13.776,4.224,14,4.5,14H6v1H4.5C4.224,15,4,15.225,4,15.5
	C4,15.776,4.224,16,4.5,16h2C6.776,16,7,15.776,7,15.5v-2C7,13.225,6.776,13,6.5,13H5v-1H6.5z M5.82,7.151
	c-0.184-0.184-0.481-0.184-0.665,0L3.493,8.814l-1.67-1.67c-0.184-0.184-0.481-0.184-0.665,0c-0.184,0.184-0.184,0.481,0,0.665l2,2
	C3.159,9.811,3.159,9.812,3.16,9.812c0.184,0.184,0.481,0.184,0.665,0L5.82,7.816C6.003,7.633,6.003,7.335,5.82,7.151z M9.5,0
	C5.911,0,3.001,2.908,3,6.497C3,6.498,3,6.499,3,6.5C3,6.776,3.223,7,3.5,7s0.5-0.224,0.5-0.5h0c0.001-3.037,2.463-5.498,5.5-5.498
	c3.038,0,5.5,2.462,5.5,5.5c0,3.035-2.458,5.496-5.493,5.5C9.504,12.002,9.502,12,9.5,12C9.223,12,9,12.224,9,12.5S9.223,13,9.5,13
	h0c3.59,0,6.5-2.91,6.5-6.5C16,2.91,13.09,0,9.5,0z M9.5,2C9.224,2,9,2.224,9,2.5v4c0,0.157,0.076,0.291,0.189,0.382l2.078,2.079
	c0.195,0.195,0.512,0.195,0.707,0s0.195-0.512,0-0.707L10,6.279V2.5C10,2.224,9.776,2,9.5,2z"/>
</svg>
