<?xml version="1.0" encoding="utf-8"?>
<!-- Generator: Adobe Illustrator 16.0.4, SVG Export Plug-In . SVG Version: 6.00 Build 0)  -->
<!DOCTYPE svg PUBLIC "-//W3C//DTD SVG 1.1//EN" "http://www.w3.org/Graphics/SVG/1.1/DTD/svg11.dtd">
<svg version="1.1" id="Ebene_1" xmlns="http://www.w3.org/2000/svg" xmlns:xlink="http://www.w3.org/1999/xlink" x="0px" y="0px"
	 width="16px" height="16px" viewBox="0 0 16 16" enable-background="new 0 0 16 16" xml:space="preserve">
<path d="M6.953,7.995H6.212c0.479-0.531,0.78-1.228,0.78-2c0-1.656-1.344-3-3-3c-1.657,0-3,1.344-3,3
	c0,0.782,0.306,1.487,0.796,2.021C0.785,8.124,0,8.964,0,9.995v3.463h0.003c0,0.006-0.003,0.01-0.003,0.016
	c0,0.276,0.224,0.5,0.5,0.5S1,13.75,1,13.474c0-0.006-0.003-0.01-0.003-0.016H1V9.995c0-0.553,0.447-1,1-1h2.953H6h0.953
	c0.276,0,0.5-0.224,0.5-0.5S7.229,7.995,6.953,7.995z M4,7.995c-1.104,0-2-0.896-2-2s0.896-2,2-2s2,0.896,2,2S5.104,7.995,4,7.995z"
	/>
<path d="M16,9.964c0-1.037-0.793-1.88-1.803-1.98c0.488-0.533,0.795-1.238,0.795-2.02c0-1.656-1.344-3-3-3c-1.657,0-3,1.344-3,3
	c0,0.782,0.306,1.487,0.796,2.021C8.785,8.093,8,8.933,8,9.964v3.494h0.003c0,0.006-0.003,0.01-0.003,0.016
	c0,0.276,0.224,0.5,0.5,0.5S9,13.75,9,13.474c0-0.006-0.003-0.01-0.003-0.016H9V9.964c0-0.553,0.447-1,1-1h4c0.553,0,1,0.447,1,1
	v3.494h0.003c0,0.006-0.003,0.01-0.003,0.016c0,0.276,0.224,0.5,0.5,0.5s0.5-0.224,0.5-0.5c0-0.006-0.003-0.01-0.003-0.016H16V9.964
	z M12,7.964c-1.104,0-2-0.896-2-2s0.896-2,2-2s2,0.896,2,2S13.104,7.964,12,7.964z"/>
</svg>
