<?xml version="1.0" encoding="utf-8"?>
<!-- Generator: Adobe Illustrator 16.0.4, SVG Export Plug-In . SVG Version: 6.00 Build 0)  -->
<!DOCTYPE svg PUBLIC "-//W3C//DTD SVG 1.1//EN" "http://www.w3.org/Graphics/SVG/1.1/DTD/svg11.dtd">
<svg version="1.1" id="Ebene_1" xmlns="http://www.w3.org/2000/svg" xmlns:xlink="http://www.w3.org/1999/xlink" x="0px" y="0px"
	 width="16px" height="16px" viewBox="0 0 16 16" enable-background="new 0 0 16 16" xml:space="preserve">
<path fill-rule="evenodd" clip-rule="evenodd" d="M15.001,7.5c0,3.59-2.91,6.5-6.5,6.5c-0.277,0-0.5-0.224-0.5-0.5
	s0.223-0.5,0.5-0.5c0.002,0,0.004,0.002,0.008,0.002c3.033-0.004,5.492-2.465,5.492-5.5c0-3.038-2.463-5.5-5.5-5.5
	S3.003,4.464,3.001,7.5C3,7.776,2.776,8,2.501,8c-0.277,0-0.5-0.224-0.5-0.5c0-0.001,0-0.002,0-0.003C2.003,3.908,4.912,1,8.501,1
	C12.091,1,15.001,3.91,15.001,7.5z M8.517,3c-0.276,0-0.5,0.224-0.5,0.5v4c0,0.157,0.076,0.291,0.189,0.382l2.078,2.079
	c0.195,0.195,0.512,0.195,0.707,0s0.195-0.512,0-0.707L9.017,7.279V3.5C9.017,3.224,8.793,3,8.517,3z M4.193,8.214l-1.67,1.67
	L0.861,8.222c-0.184-0.184-0.481-0.184-0.665,0s-0.184,0.481,0,0.665l1.995,1.996c0.184,0.184,0.481,0.184,0.665,0
	c0-0.001,0-0.002,0.002-0.003l2-2c0.184-0.184,0.184-0.481,0-0.665C4.675,8.031,4.378,8.031,4.193,8.214z"/>
</svg>
