<?xml version="1.0" encoding="utf-8"?>
<!-- Generator: Adobe Illustrator 16.0.4, SVG Export Plug-In . SVG Version: 6.00 Build 0)  -->
<!DOCTYPE svg PUBLIC "-//W3C//DTD SVG 1.1//EN" "http://www.w3.org/Graphics/SVG/1.1/DTD/svg11.dtd">
<svg version="1.1" id="Ebene_1" xmlns="http://www.w3.org/2000/svg" xmlns:xlink="http://www.w3.org/1999/xlink" x="0px" y="0px"
	 width="16px" height="16px" viewBox="0 0 16 16" enable-background="new 0 0 16 16" xml:space="preserve">
<path fill-rule="evenodd" clip-rule="evenodd" d="M13.899,6.063c-0.489-3.388-3.376-6-6.899-6c-3.866,0-7,3.134-7,7
	c0,3.867,3.134,7,7,7c0.342,0,1-0.281,1-1.047s-0.658-0.953-1-0.953c-2.761,0-5-2.238-5-5s2.239-5,5-5c2.419,0,4.436,1.718,4.899,4
	H9.965l3.018,3.964L16,6.063H13.899z M6.945,3.063c-0.552,0-1,0.448-1,1v2.954C5.931,7.29,6.02,7.566,6.228,7.774l2.121,2.121
	c0.391,0.391,1.024,0.391,1.415,0c0.391-0.389,0.391-1.023,0-1.414L7.945,6.663v-2.6C7.945,3.511,7.497,3.063,6.945,3.063z M15.5,11
	h-2c-0.276,0-0.5,0.225-0.5,0.5v4c0,0.277,0.224,0.5,0.5,0.5h2c0.276,0,0.5-0.223,0.5-0.5v-4C16,11.225,15.776,11,15.5,11z M15,15
	h-1v-3h1V15z M11.5,11h-2C9.224,11,9,11.225,9,11.5C9,11.777,9.224,12,9.5,12H11v1h-0.5c-0.276,0-0.5,0.225-0.5,0.5
	c0,0.277,0.224,0.5,0.5,0.5H11v1H9.5C9.224,15,9,15.225,9,15.5C9,15.777,9.224,16,9.5,16h2c0.276,0,0.5-0.223,0.5-0.5v-4
	C12,11.225,11.776,11,11.5,11z"/>
</svg>
