<?xml version="1.0" encoding="utf-8"?>
<!-- Generator: Adobe Illustrator 16.0.4, SVG Export Plug-In . SVG Version: 6.00 Build 0)  -->
<!DOCTYPE svg PUBLIC "-//W3C//DTD SVG 1.1//EN" "http://www.w3.org/Graphics/SVG/1.1/DTD/svg11.dtd">
<svg version="1.1" id="Ebene_1" xmlns="http://www.w3.org/2000/svg" xmlns:xlink="http://www.w3.org/1999/xlink" x="0px" y="0px"
	 width="16px" height="16px" viewBox="0 0 16 16" enable-background="new 0 0 16 16" xml:space="preserve">
<path fill="#181716" d="M4.006,3.351L5.894,4.53l5.661,3.535l-1.133,0.69l-6.415,3.912V3.351 M3.573,1.996
	c-0.32,0-0.567,0.32-0.567,0.672c0,2.494,0,8.468,0,10.812c0,0.396,0.201,0.525,0.443,0.525c0.181,0,0.385-0.072,0.545-0.16
	c2.061-1.256,6.779-4.132,8.665-5.282c0.352-0.215,0.522-0.697,0.021-0.973c-1.896-1.185-6.753-4.217-8.772-5.479
	C3.793,2.031,3.679,1.996,3.573,1.996L3.573,1.996z"/>
</svg>
