<?xml version="1.0" encoding="utf-8"?>
<!-- Generator: Adobe Illustrator 16.0.4, SVG Export Plug-In . SVG Version: 6.00 Build 0)  -->
<!DOCTYPE svg PUBLIC "-//W3C//DTD SVG 1.1//EN" "http://www.w3.org/Graphics/SVG/1.1/DTD/svg11.dtd">
<svg version="1.1" id="Ebene_1" xmlns="http://www.w3.org/2000/svg" xmlns:xlink="http://www.w3.org/1999/xlink" x="0px" y="0px"
	 width="16px" height="16px" viewBox="0 0 16 16" enable-background="new 0 0 16 16" xml:space="preserve">
<path d="M7.991,3C6.886,3,5.896,3.458,5.176,4.185L6.991,6H4.133H2.092H1.991V1l1.779,1.779C4.852,1.69,6.333,1,7.991,1
	c2.536,0,4.692,1.577,5.567,3.802c0.15,0.382,0.072,0.839-0.538,1.152s-1.146-0.095-1.36-0.512C11.054,4.009,9.646,3,7.991,3z
	 M15.991,14v2h-1v-2c0-0.553-0.447-1-1-1h-4c-0.512,0-0.917,0.389-0.977,0.884c-0.027-0.467-0.212-0.889-0.506-1.215
	c0.323-0.36,0.773-0.594,1.279-0.646c-0.49-0.534-0.797-1.24-0.797-2.022c0-1.656,1.343-3,3-3s3,1.344,3,3
	c0,0.781-0.306,1.486-0.795,2.021C15.203,12.125,15.991,12.966,15.991,14z M9.991,10c0,1.104,0.896,2,2,2s2-0.896,2-2s-0.896-2-2-2
	S9.991,8.896,9.991,10z M6.204,12.021C6.694,11.487,7,10.782,7,10c0-1.656-1.343-3-3-3s-3,1.344-3,3c0,0.781,0.306,1.486,0.795,2.02
	C0.784,12.12-0.009,12.963-0.009,14v2h8v-2C7.991,12.969,7.207,12.129,6.204,12.021z"/>
</svg>
