<?xml version="1.0" encoding="utf-8"?>
<!-- Generator: Adobe Illustrator 16.0.4, SVG Export Plug-In . SVG Version: 6.00 Build 0)  -->
<!DOCTYPE svg PUBLIC "-//W3C//DTD SVG 1.1//EN" "http://www.w3.org/Graphics/SVG/1.1/DTD/svg11.dtd">
<svg version="1.1" id="Ebene_1" xmlns="http://www.w3.org/2000/svg" xmlns:xlink="http://www.w3.org/1999/xlink" x="0px" y="0px"
	 width="16px" height="16px" viewBox="0 0 16 16" enable-background="new 0 0 16 16" xml:space="preserve">
<path fill="#181716" d="M7.98,4.326v2.262v1.716V9.32v2.336C6.342,10.705,3.714,9.18,1.943,8.153L1.59,7.948
	C3.358,6.946,6.261,5.302,7.98,4.326 M14.998,4.327v7.329l-3.512-2.038L9.482,8.456L8.608,7.948l0.865-0.49l5.123-2.903
	L14.998,4.327 M15.6,2.981c-0.163,0-0.347,0.061-0.49,0.134c-1.393,0.789-4.133,2.342-6.129,3.473c0-1.273,0-2.434,0-3.168
	c0-0.331-0.181-0.439-0.398-0.439c-0.163,0-0.348,0.061-0.492,0.134C6.238,4.166,1.994,6.569,0.299,7.529
	c-0.316,0.18-0.469,0.584-0.02,0.814c1.705,0.989,6.074,3.523,7.889,4.578c0.104,0.067,0.206,0.097,0.302,0.097
	c0.288,0,0.511-0.268,0.511-0.562c0-0.758,0-1.898,0-3.137c2.033,1.18,4.842,2.809,6.207,3.602c0.104,0.067,0.205,0.097,0.301,0.097
	c0.287,0,0.51-0.268,0.51-0.562c0-2.085,0-7.078,0-9.037C15.998,3.089,15.817,2.981,15.6,2.981L15.6,2.981z"/>
</svg>
