<?xml version="1.0" encoding="utf-8"?>
<!-- Generator: Adobe Illustrator 16.0.4, SVG Export Plug-In . SVG Version: 6.00 Build 0)  -->
<!DOCTYPE svg PUBLIC "-//W3C//DTD SVG 1.1//EN" "http://www.w3.org/Graphics/SVG/1.1/DTD/svg11.dtd">
<svg version="1.1" id="Ebene_1" xmlns="http://www.w3.org/2000/svg" xmlns:xlink="http://www.w3.org/1999/xlink" x="0px" y="0px"
	 width="16px" height="16px" viewBox="0 0 16 16" enable-background="new 0 0 16 16" xml:space="preserve">
<path fill-rule="evenodd" clip-rule="evenodd" fill="#181716" d="M4.957,2h0.148c0.552,0,1,0.447,1,1v10c0,0.553-0.448,1-1,1H4.957
	c-0.552,0-1-0.447-1-1V3C3.957,2.447,4.404,2,4.957,2z M10.945,2h0.012c0.553,0,1,0.447,1,1v10c0,0.553-0.447,1-1,1h-0.012
	c-0.553,0-1-0.447-1-1V3C9.945,2.447,10.392,2,10.945,2z"/>
</svg>
