<?xml version="1.0" encoding="utf-8"?>
<!-- Generator: Adobe Illustrator 16.0.4, SVG Export Plug-In . SVG Version: 6.00 Build 0)  -->
<!DOCTYPE svg PUBLIC "-//W3C//DTD SVG 1.1//EN" "http://www.w3.org/Graphics/SVG/1.1/DTD/svg11.dtd">
<svg version="1.1" id="Ebene_1" xmlns="http://www.w3.org/2000/svg" xmlns:xlink="http://www.w3.org/1999/xlink" x="0px" y="0px"
	 width="16px" height="16px" viewBox="0 0 16 16" enable-background="new 0 0 16 16" xml:space="preserve">
<path fill="#181716" d="M13.094,12.648l-1.887-1.179L5.545,7.935l1.133-0.69l6.416-3.912V12.648 M13.527,14.004
	c0.318,0,0.566-0.32,0.566-0.672c0-2.494,0-8.468,0-10.812c0-0.396-0.201-0.525-0.443-0.525c-0.182,0-0.385,0.072-0.545,0.16
	c-2.061,1.256-6.779,4.132-8.666,5.282C4.088,7.652,3.918,8.134,4.418,8.41c1.896,1.185,6.754,4.217,8.773,5.479
	C13.307,13.969,13.42,14.004,13.527,14.004L13.527,14.004z M3.105,14.008h1.023V1.991H3.105V14.008z"/>
</svg>
