<?xml version="1.0" encoding="utf-8"?>
<!-- Generator: Adobe Illustrator 16.0.4, SVG Export Plug-In . SVG Version: 6.00 Build 0)  -->
<!DOCTYPE svg PUBLIC "-//W3C//DTD SVG 1.1//EN" "http://www.w3.org/Graphics/SVG/1.1/DTD/svg11.dtd">
<svg version="1.1" id="Ebene_1" xmlns="http://www.w3.org/2000/svg" xmlns:xlink="http://www.w3.org/1999/xlink" x="0px" y="0px"
	 width="16px" height="16px" viewBox="0 0 16 16" enable-background="new 0 0 16 16" xml:space="preserve">
<path fill-rule="evenodd" clip-rule="evenodd" d="M7,14.062c0.342,0,1-0.219,1-1.031s-0.658-0.969-1-0.969c-2.761,0-5-2.238-5-5
	s2.239-5,5-5c2.419,0,4.436,1.718,4.899,4H9.965l3.018,3.964L16,6.063h-2.101c-0.489-3.388-3.376-6-6.899-6c-3.866,0-7,3.134-7,7
	C0,10.93,3.134,14.062,7,14.062z M14.5,13c0.276,0,0.5,0.225,0.5,0.5v2c0,0.276-0.224,0.5-0.5,0.5h-2c-0.276,0-0.5-0.224-0.5-0.5
	c0-0.275,0.224-0.5,0.5-0.5H14v-1h-1.5c-0.276,0-0.5-0.224-0.5-0.5v-2c0-0.275,0.224-0.5,0.5-0.5h2c0.276,0,0.5,0.225,0.5,0.5
	c0,0.276-0.224,0.5-0.5,0.5H13v1H14.5z M10.5,16c-0.276,0-0.5-0.224-0.5-0.5V12H9.5C9.224,12,9,11.776,9,11.5
	C9,11.225,9.224,11,9.5,11h1c0.276,0,0.5,0.225,0.5,0.5v4C11,15.776,10.776,16,10.5,16z M9.764,9.895
	c-0.391,0.391-1.023,0.391-1.415,0L6.228,7.774C6.02,7.566,5.931,7.29,5.945,7.017V4.063c0-0.552,0.448-1,1-1s1,0.448,1,1v2.6
	l1.819,1.818C10.154,8.872,10.154,9.506,9.764,9.895z"/>
</svg>
