<?xml version="1.0" encoding="utf-8"?>
<!-- Generator: Adobe Illustrator 16.0.4, SVG Export Plug-In . SVG Version: 6.00 Build 0)  -->
<!DOCTYPE svg PUBLIC "-//W3C//DTD SVG 1.1//EN" "http://www.w3.org/Graphics/SVG/1.1/DTD/svg11.dtd">
<svg version="1.1" id="Ebene_1" xmlns="http://www.w3.org/2000/svg" xmlns:xlink="http://www.w3.org/1999/xlink" x="0px" y="0px"
	 width="16px" height="16px" viewBox="0 0 16 16" enable-background="new 0 0 16 16" xml:space="preserve">
<path fill-rule="evenodd" clip-rule="evenodd" d="M11,11.5v4c0,0.276-0.224,0.5-0.5,0.5S10,15.776,10,15.5V12H9.5
	C9.224,12,9,11.776,9,11.5C9,11.225,9.224,11,9.5,11h1C10.776,11,11,11.225,11,11.5z M14.5,13H13v-1h1.5c0.276,0,0.5-0.224,0.5-0.5
	c0-0.275-0.224-0.5-0.5-0.5h-2c-0.276,0-0.5,0.225-0.5,0.5v2c0,0.276,0.224,0.5,0.5,0.5H14v1h-1.5c-0.276,0-0.5,0.225-0.5,0.5
	c0,0.276,0.224,0.5,0.5,0.5h2c0.276,0,0.5-0.224,0.5-0.5v-2C15,13.225,14.776,13,14.5,13z M10.865,7.211
	c-0.184-0.184-0.481-0.184-0.665,0s-0.184,0.481,0,0.665l1.995,1.997c0.184,0.184,0.481,0.184,0.665,0c0-0.002,0-0.002,0.001-0.004
	l2-2c0.184-0.184,0.184-0.481,0-0.665c-0.184-0.184-0.481-0.184-0.665,0l-1.67,1.67L10.865,7.211z M6.5,12
	c-0.003,0-0.005,0.002-0.008,0.002C3.458,11.998,1,9.537,1,6.502c0-3.038,2.462-5.5,5.5-5.5c3.037,0,5.499,2.461,5.5,5.498h0
	c0,0.276,0.224,0.5,0.5,0.5S13,6.776,13,6.5c0-0.001,0-0.002,0-0.003C12.999,2.908,10.089,0,6.5,0C2.91,0,0,2.91,0,6.5
	C0,10.09,2.91,13,6.5,13h0C6.777,13,7,12.776,7,12.5S6.777,12,6.5,12z M8.975,8.254L7,6.279V2.5C7,2.224,6.776,2,6.5,2
	S6,2.224,6,2.5v4c0,0.157,0.076,0.291,0.189,0.382l2.078,2.079c0.195,0.195,0.512,0.195,0.707,0S9.17,8.449,8.975,8.254z"/>
</svg>
