<?xml version="1.0" encoding="utf-8"?>
<!-- Generator: Adobe Illustrator 16.0.4, SVG Export Plug-In . SVG Version: 6.00 Build 0)  -->
<!DOCTYPE svg PUBLIC "-//W3C//DTD SVG 1.1//EN" "http://www.w3.org/Graphics/SVG/1.1/DTD/svg11.dtd">
<svg version="1.1" id="Ebene_1" xmlns="http://www.w3.org/2000/svg" xmlns:xlink="http://www.w3.org/1999/xlink" x="0px" y="0px"
	 width="16px" height="16px" viewBox="0 0 16 16" enable-background="new 0 0 16 16" xml:space="preserve">
<path fill-rule="evenodd" clip-rule="evenodd" d="M8.958,0c-3.523,0-6.41,2.612-6.899,6h-2.101l3.018,3.964L5.994,6H4.059
	c0.463-2.282,2.48-4,4.899-4c2.762,0,5,2.239,5,5c0,2.762-2.238,5-5,5c-0.343,0-1,0.25-1,1s0.657,1,1,1c3.866,0,7-3.134,7-7
	S12.824,0,8.958,0z M8.958,3c-0.552,0-1,0.448-1,1v2.954C7.944,7.227,8.033,7.503,8.241,7.711l2.121,2.121
	c0.391,0.391,1.023,0.391,1.414,0c0.391-0.39,0.391-1.023,0-1.414L9.958,6.6V4C9.958,3.448,9.511,3,8.958,3z M2.5,11h-1
	C1.224,11,1,11.225,1,11.5C1,11.776,1.224,12,1.5,12H2v3.5C2,15.776,2.224,16,2.5,16S3,15.776,3,15.5v-4C3,11.225,2.776,11,2.5,11z
	 M6.5,12C6.776,12,7,11.776,7,11.5C7,11.225,6.776,11,6.5,11h-2C4.224,11,4,11.225,4,11.5v2C4,13.776,4.224,14,4.5,14H6v1H4.5
	C4.224,15,4,15.225,4,15.5C4,15.776,4.224,16,4.5,16h2C6.776,16,7,15.776,7,15.5v-2C7,13.225,6.776,13,6.5,13H5v-1H6.5z"/>
</svg>
