<?xml version="1.0" encoding="utf-8"?>
<!-- Generator: Adobe Illustrator 16.0.4, SVG Export Plug-In . SVG Version: 6.00 Build 0)  -->
<!DOCTYPE svg PUBLIC "-//W3C//DTD SVG 1.1//EN" "http://www.w3.org/Graphics/SVG/1.1/DTD/svg11.dtd">
<svg version="1.1" id="Ebene_1" xmlns="http://www.w3.org/2000/svg" xmlns:xlink="http://www.w3.org/1999/xlink" x="0px" y="0px"
	 width="16px" height="16px" viewBox="0 0 16 16" enable-background="new 0 0 16 16" xml:space="preserve">
<path fill-rule="evenodd" clip-rule="evenodd" d="M9,0C5.476,0,2.589,2.612,2.1,6H0l3.018,3.964L6.035,6H4.1
	C4.563,3.718,6.581,2,9,2c2.762,0,5,2.239,5,5c0,2.762-2.238,5-5,5c-0.343,0-1,0.312-1,1.031S8.657,14,9,14c3.866,0,7-3.134,7-7
	S12.866,0,9,0z M9,3C8.447,3,8,3.448,8,4v2.954C7.986,7.227,8.075,7.503,8.283,7.711l2.121,2.121c0.391,0.391,1.023,0.391,1.414,0
	c0.391-0.39,0.391-1.023,0-1.414L10,6.6V4C10,3.448,9.552,3,9,3z M6.5,11h-2C4.224,11,4,11.225,4,11.5v4C4,15.777,4.224,16,4.5,16h2
	C6.776,16,7,15.777,7,15.5v-4C7,11.225,6.776,11,6.5,11z M6,15H5v-3h1V15z M2.5,11h-2C0.224,11,0,11.225,0,11.5
	C0,11.777,0.224,12,0.5,12H2v1H1.5C1.224,13,1,13.225,1,13.5C1,13.777,1.224,14,1.5,14H2v1H0.5C0.224,15,0,15.225,0,15.5
	C0,15.777,0.224,16,0.5,16h2C2.776,16,3,15.777,3,15.5v-4C3,11.225,2.776,11,2.5,11z"/>
</svg>
