<?xml version="1.0" encoding="utf-8"?>
<!-- Generator: Adobe Illustrator 16.0.4, SVG Export Plug-In . SVG Version: 6.00 Build 0)  -->
<!DOCTYPE svg PUBLIC "-//W3C//DTD SVG 1.1//EN" "http://www.w3.org/Graphics/SVG/1.1/DTD/svg11.dtd">
<svg version="1.1" id="Ebene_1" xmlns="http://www.w3.org/2000/svg" xmlns:xlink="http://www.w3.org/1999/xlink" x="0px" y="0px"
	 width="16px" height="16px" viewBox="0 0 16 16" enable-background="new 0 0 16 16" xml:space="preserve">
<path fill-rule="evenodd" clip-rule="evenodd" fill="#181716" d="M3.084,2.135c2.428,1.469,6.27,4.008,8.551,5.387
	c0.283,0.15,0.377,0.356,0.363,0.557V3c0-0.553,0.447-1,1-1s1,0.447,1,1v10c0,0.553-0.447,1-1,1s-1-0.447-1-1V8.13
	c-0.035,0.206-0.184,0.401-0.391,0.524c-2.266,1.338-5.941,3.688-8.42,5.149c-0.451,0.239-1.189,0.38-1.189-0.425
	c0-2.729,0-7.691,0-10.596C1.998,2.238,2.525,1.758,3.084,2.135z"/>
</svg>
