<?xml version="1.0" encoding="utf-8"?>
<!-- Generator: Adobe Illustrator 16.0.4, SVG Export Plug-In . SVG Version: 6.00 Build 0)  -->
<!DOCTYPE svg PUBLIC "-//W3C//DTD SVG 1.1//EN" "http://www.w3.org/Graphics/SVG/1.1/DTD/svg11.dtd">
<svg version="1.1" id="Ebene_1" xmlns="http://www.w3.org/2000/svg" xmlns:xlink="http://www.w3.org/1999/xlink" x="0px" y="0px"
	 width="16px" height="16px" viewBox="0 0 16 16" enable-background="new 0 0 16 16" xml:space="preserve">
<path fill-rule="evenodd" clip-rule="evenodd" d="M12.969,9h-6.48L4.927,7h8.042V9z M9,15c-3.523,0-6.41-2.611-6.899-6H0.48
	l2.537-3.264L5.482,9H4.101c0.464,2.282,2.48,4,4.899,4c2.762,0,5-2.239,5-5c0-2.762-2.238-5-5-5C8.469,3,8,2.578,8,2s0.5-1,1-1
	c3.866,0,7,3.134,7,7S12.866,15,9,15z"/>
</svg>
