<?xml version="1.0" encoding="utf-8"?>
<!-- Generator: Adobe Illustrator 16.0.4, SVG Export Plug-In . SVG Version: 6.00 Build 0)  -->
<!DOCTYPE svg PUBLIC "-//W3C//DTD SVG 1.1//EN" "http://www.w3.org/Graphics/SVG/1.1/DTD/svg11.dtd">
<svg version="1.1" id="Ebene_1" xmlns="http://www.w3.org/2000/svg" xmlns:xlink="http://www.w3.org/1999/xlink" x="0px" y="0px"
	 width="16px" height="16px" viewBox="0 0 16 16" enable-background="new 0 0 16 16" xml:space="preserve">
<path fill-rule="evenodd" clip-rule="evenodd" fill="#181716" d="M12.453,4h-0.5c0-1.104-0.896-2-2-2h-5c-1.104,0-2,0.896-2,2h-0.5
	c-0.276,0-0.5,0.224-0.5,0.5S2.177,5,2.453,5h0.5v8c0,1.104,0.896,2,2,2h5c1.104,0,2-0.896,2-2V5h0.5c0.276,0,0.5-0.224,0.5-0.5
	S12.729,4,12.453,4z M4.953,3h5c0.553,0,1,0.447,1,1h-7C3.953,3.447,4.4,3,4.953,3z M10.953,13c0,0.553-0.447,1-1,1h-5
	c-0.553,0-1-0.447-1-1V5h7V13z M4.953,11.5v-4c0-0.276,0.224-0.5,0.5-0.5s0.5,0.224,0.5,0.5v4c0,0.276-0.224,0.5-0.5,0.5
	S4.953,11.776,4.953,11.5z M8.953,11.5v-4c0-0.276,0.224-0.5,0.5-0.5s0.5,0.224,0.5,0.5v4c0,0.276-0.224,0.5-0.5,0.5
	S8.953,11.776,8.953,11.5z M6.953,11.5v-4c0-0.276,0.224-0.5,0.5-0.5s0.5,0.224,0.5,0.5v4c0,0.276-0.224,0.5-0.5,0.5
	S6.953,11.776,6.953,11.5z"/>
</svg>
