<?xml version="1.0" encoding="utf-8"?>
<!-- Generator: Adobe Illustrator 16.0.4, SVG Export Plug-In . SVG Version: 6.00 Build 0)  -->
<!DOCTYPE svg PUBLIC "-//W3C//DTD SVG 1.1//EN" "http://www.w3.org/Graphics/SVG/1.1/DTD/svg11.dtd">
<svg version="1.1" id="Ebene_1" xmlns="http://www.w3.org/2000/svg" xmlns:xlink="http://www.w3.org/1999/xlink" x="0px" y="0px"
	 width="16px" height="16px" viewBox="0 0 16 16" enable-background="new 0 0 16 16" xml:space="preserve">
<path fill-rule="evenodd" clip-rule="evenodd" d="M4.25,7.293c0.184-0.184,0.481-0.184,0.666,0l2.571,2.571l2.599-2.6
	c0.184-0.184,0.48-0.184,0.664,0s0.184,0.482,0,0.666l-2.931,2.932c-0.184,0.184-0.482,0.184-0.666,0c0,0,0-0.002-0.001-0.002
	L4.25,7.958C4.066,7.774,4.066,7.478,4.25,7.293z M14.994,8.47C14.978,8.208,14.766,8,14.5,8s-0.478,0.208-0.494,0.47H14V12
	c0,1.104-0.896,2-2,2H3c-1.104,0-2-0.896-2-2V8.47H0.994C0.978,8.208,0.766,8,0.5,8S0.022,8.208,0.006,8.47H0V12
	c0,1.657,1.343,3,3,3h9c1.657,0,3-1.343,3-3V8.47H14.994z M8,1.5C8,1.224,7.776,1,7.5,1l0,0C7.224,1,7,1.224,7,1.5v6
	C7,7.776,7.224,8,7.5,8l0,0C7.776,8,8,7.776,8,7.5V1.5z"/>
</svg>
