<?xml version="1.0" encoding="utf-8"?>
<!-- Generator: Adobe Illustrator 16.0.4, SVG Export Plug-In . SVG Version: 6.00 Build 0)  -->
<!DOCTYPE svg PUBLIC "-//W3C//DTD SVG 1.1//EN" "http://www.w3.org/Graphics/SVG/1.1/DTD/svg11.dtd">
<svg version="1.1" id="Ebene_1" xmlns="http://www.w3.org/2000/svg" xmlns:xlink="http://www.w3.org/1999/xlink" x="0px" y="0px"
	 width="16px" height="16px" viewBox="0 0 16 16" enable-background="new 0 0 16 16" xml:space="preserve">
<path fill-rule="evenodd" clip-rule="evenodd" fill="#181716" d="M12,15H3c-1.656,0-3-1.343-3-3c0,0,0-2.344,0-3s0.391-1,1.016-1
	S2,8,2,8v3.8C2,12.463,2.537,13,3.2,13h8.6c0.663,0,1.2-0.537,1.2-1.2V8c0,0,0.375,0,1.016,0S15,8.469,15,9s0,3,0,3
	C15,13.657,13.656,15,12,15z M7.5,12L3,6h3V3V2V0h3v2v1v3h3L7.5,12z"/>
</svg>
