<?xml version="1.0" encoding="utf-8"?>
<!-- Generator: Adobe Illustrator 16.0.4, SVG Export Plug-In . SVG Version: 6.00 Build 0)  -->
<!DOCTYPE svg PUBLIC "-//W3C//DTD SVG 1.1//EN" "http://www.w3.org/Graphics/SVG/1.1/DTD/svg11.dtd">
<svg version="1.1" id="Ebene_1" xmlns="http://www.w3.org/2000/svg" xmlns:xlink="http://www.w3.org/1999/xlink" x="0px" y="0px"
	 width="16px" height="16px" viewBox="0 0 16 16" enable-background="new 0 0 16 16" xml:space="preserve">
<path fill-rule="evenodd" clip-rule="evenodd" fill="#181716" d="M-0.015,4.5v-4c0-0.275,0.224-0.5,0.5-0.5h4
	c0.276,0,0.5,0.225,0.5,0.5c0,0.276-0.224,0.5-0.5,0.5H1.692l5.112,5.113C7.001,6.309,7.001,6.625,6.806,6.82
	c-0.196,0.195-0.512,0.195-0.708,0L0.985,1.707V4.5c0,0.277-0.224,0.5-0.5,0.5S-0.015,4.777-0.015,4.5z M15.515,0
	C15.514,0,15.514,0,15.515,0h-4.001c-0.276,0-0.5,0.224-0.5,0.5s0.224,0.5,0.5,0.5h2.794L9.194,6.112
	c-0.195,0.196-0.195,0.512,0,0.708C9.39,7.016,9.706,7.016,9.901,6.819l5.112-5.111V4.5c0,0.276,0.225,0.5,0.501,0.5
	c0.275,0,0.5-0.224,0.5-0.5v-4C16.015,0.224,15.79,0,15.515,0z M15.515,11c-0.276,0-0.5,0.223-0.5,0.5v2.793L9.902,9.18
	c-0.196-0.195-0.512-0.195-0.708,0C8.999,9.375,8.999,9.691,9.195,9.887L14.308,15h-2.793c-0.276,0-0.5,0.224-0.5,0.5
	c0,0.275,0.224,0.5,0.5,0.5h4c0.276,0,0.5-0.225,0.5-0.5v-4C16.015,11.223,15.791,11,15.515,11z M6.099,9.181l-5.112,5.111V11.5
	c0-0.276-0.225-0.5-0.501-0.5c-0.275,0-0.5,0.224-0.5,0.5v4c0,0.276,0.225,0.5,0.5,0.5c0.001,0,0.001,0,0.001,0h4
	c0.276,0,0.5-0.224,0.5-0.5S4.763,15,4.486,15H1.692l5.113-5.112c0.195-0.196,0.195-0.512,0-0.708
	C6.61,8.984,6.294,8.984,6.099,9.181z"/>
</svg>
