<?xml version="1.0" encoding="utf-8"?>
<!-- Generator: Adobe Illustrator 16.0.4, SVG Export Plug-In . SVG Version: 6.00 Build 0)  -->
<!DOCTYPE svg PUBLIC "-//W3C//DTD SVG 1.1//EN" "http://www.w3.org/Graphics/SVG/1.1/DTD/svg11.dtd">
<svg version="1.1" id="Ebene_1" xmlns="http://www.w3.org/2000/svg" xmlns:xlink="http://www.w3.org/1999/xlink" x="0px" y="0px"
	 width="16px" height="16px" viewBox="0 0 16 16" enable-background="new 0 0 16 16" xml:space="preserve">
<path fill-rule="evenodd" clip-rule="evenodd" d="M13,0H2C0.896,0,0,0.896,0,2v11c0,1.104,0.896,2,2,2h11c1.104,0,2-0.896,2-2V2
	C15,0.896,14.104,0,13,0z M14,13c0,0.553-0.448,1-1,1H2c-0.552,0-1-0.447-1-1V2c0-0.553,0.448-1,1-1h11c0.552,0,1,0.447,1,1V13z
	 M8,6.329v5.172c0,0.276-0.224,0.5-0.5,0.5S7,11.777,7,11.501V6.329c0-0.276,0.224-0.5,0.5-0.5S8,6.053,8,6.329z M8.271,3.501
	c0,0.425-0.345,0.771-0.771,0.771S6.729,3.926,6.729,3.501S7.074,2.73,7.5,2.73S8.271,3.076,8.271,3.501z"/>
</svg>
