<?xml version="1.0" encoding="utf-8"?>
<!-- Generator: Adobe Illustrator 16.0.4, SVG Export Plug-In . SVG Version: 6.00 Build 0)  -->
<!DOCTYPE svg PUBLIC "-//W3C//DTD SVG 1.1//EN" "http://www.w3.org/Graphics/SVG/1.1/DTD/svg11.dtd">
<svg version="1.1" id="Ebene_1" xmlns="http://www.w3.org/2000/svg" xmlns:xlink="http://www.w3.org/1999/xlink" x="0px" y="0px"
	 width="16px" height="16px" viewBox="0 0 16 16" enable-background="new 0 0 16 16" xml:space="preserve">
<path fill-rule="evenodd" clip-rule="evenodd" d="M13,1H3C1.896,1,1,1.896,1,3v10c0,1.104,0.896,2,2,2h10c1.104,0,2-0.896,2-2V3
	C15,1.896,14.104,1,13,1z M14,13c0,0.553-0.448,1-1,1H3c-0.552,0-1-0.447-1-1V3c0-0.553,0.448-1,1-1h10c0.552,0,1,0.447,1,1V13z
	 M9,5c0,0.553-0.448,1-1,1S7,5.553,7,5s0.448-1,1-1S9,4.447,9,5z M9,8v3c0,0.553-0.448,1-1,1s-1-0.447-1-1V8c0-0.553,0.448-1,1-1
	S9,7.447,9,8z"/>
</svg>
