<?xml version="1.0" encoding="utf-8"?>
<!-- Generator: Adobe Illustrator 16.0.4, SVG Export Plug-In . SVG Version: 6.00 Build 0)  -->
<!DOCTYPE svg PUBLIC "-//W3C//DTD SVG 1.1//EN" "http://www.w3.org/Graphics/SVG/1.1/DTD/svg11.dtd">
<svg version="1.1" id="Ebene_1" xmlns="http://www.w3.org/2000/svg" xmlns:xlink="http://www.w3.org/1999/xlink" x="0px" y="0px"
	 width="16px" height="16px" viewBox="0 0 16 16" enable-background="new 0 0 16 16" xml:space="preserve">
<path fill-rule="evenodd" clip-rule="evenodd" fill="#181716" d="M9.96,14.01c0,1.1-0.891,1.99-1.99,1.99l0,0
	c-1.099,0-1.99-0.891-1.99-1.99V7.97c0-1.1,0.891-1.99,1.99-1.99l0,0c1.099,0,1.99,0.891,1.99,1.99V14.01z"/>
<path fill-rule="evenodd" clip-rule="evenodd" fill="#181716" d="M9.96,1.99c0,1.099-0.891,1.99-1.99,1.99l0,0
	c-1.099,0-1.99-0.892-1.99-1.99l0,0c0-1.1,0.891-1.99,1.99-1.99l0,0C9.069,0,9.96,0.891,9.96,1.99L9.96,1.99z"/>
</svg>
