<?xml version="1.0" encoding="utf-8"?>
<!-- Generator: Adobe Illustrator 16.0.4, SVG Export Plug-In . SVG Version: 6.00 Build 0)  -->
<!DOCTYPE svg PUBLIC "-//W3C//DTD SVG 1.1//EN" "http://www.w3.org/Graphics/SVG/1.1/DTD/svg11.dtd">
<svg version="1.1" id="Ebene_1" xmlns="http://www.w3.org/2000/svg" xmlns:xlink="http://www.w3.org/1999/xlink" x="0px" y="0px"
	 width="16px" height="16px" viewBox="0 0 16 16" enable-background="new 0 0 16 16" xml:space="preserve">
<path fill-rule="evenodd" clip-rule="evenodd" fill="#181716" d="M12.654,8.471l0.002,0.003l-0.029,0.048
	c-0.037,0.057-0.068,0.115-0.107,0.17L8,15.932l-4.521-7.24C3.441,8.637,3.41,8.579,3.375,8.523l-0.188-0.3L3.2,8.202
	C2.768,7.416,2.5,6.527,2.5,5.567c0-3.038,2.463-5.5,5.5-5.5s5.5,2.462,5.5,5.5C13.5,6.637,13.182,7.626,12.654,8.471z M8,2.932
	c-1.455,0-2.636,1.18-2.636,2.636S6.545,8.203,8,8.203s2.636-1.18,2.636-2.636S9.455,2.932,8,2.932z"/>
</svg>
