<?xml version="1.0" encoding="utf-8"?>
<!-- Generator: Adobe Illustrator 16.0.4, SVG Export Plug-In . SVG Version: 6.00 Build 0)  -->
<!DOCTYPE svg PUBLIC "-//W3C//DTD SVG 1.1//EN" "http://www.w3.org/Graphics/SVG/1.1/DTD/svg11.dtd">
<svg version="1.1" id="Ebene_1" xmlns="http://www.w3.org/2000/svg" xmlns:xlink="http://www.w3.org/1999/xlink" x="0px" y="0px"
	 width="16px" height="16px" viewBox="0 0 16 16" enable-background="new 0 0 16 16" xml:space="preserve">
<path fill-rule="evenodd" clip-rule="evenodd" fill="#181716" d="M13,5c0-2.762-2.238-5-5-5S3,2.238,3,5
	c0,0.712,0.153,1.387,0.422,2H3.417L8,16l4.583-9h-0.005C12.847,6.387,13,5.712,13,5z M11.514,6.892L8,13.536L4.48,6.9h0.021
	C4.191,6.333,4,5.691,4,5c0-2.209,1.791-4,4-4s4,1.791,4,4c0,0.688-0.189,1.326-0.496,1.892H11.514z M7.984,2c-1.657,0-3,1.343-3,3
	s1.343,3,3,3s3-1.343,3-3S9.642,2,7.984,2z M8,7C6.896,7,6,6.104,6,5s0.896-2,2-2s2,0.896,2,2S9.104,7,8,7z"/>
</svg>
