<?xml version="1.0" encoding="utf-8"?>
<!-- Generator: Adobe Illustrator 16.0.4, SVG Export Plug-In . SVG Version: 6.00 Build 0)  -->
<!DOCTYPE svg PUBLIC "-//W3C//DTD SVG 1.1//EN" "http://www.w3.org/Graphics/SVG/1.1/DTD/svg11.dtd">
<svg version="1.1" id="Ebene_1" xmlns="http://www.w3.org/2000/svg" xmlns:xlink="http://www.w3.org/1999/xlink" x="0px" y="0px"
	 width="16px" height="16px" viewBox="0 0 16 16" enable-background="new 0 0 16 16" xml:space="preserve">
<path fill-rule="evenodd" clip-rule="evenodd" d="M15.469,14.528L9.893,8.946c0.622-0.831,1.013-1.844,1.013-2.962
	c0-2.762-2.239-5-5-5s-5,2.238-5,5s2.239,5,5,5c1.202,0,2.289-0.443,3.15-1.15l5.551,5.557c0.238,0.238,0.624,0.238,0.862,0
	C15.708,15.152,15.708,14.767,15.469,14.528z M1.987,5.984c0-2.209,1.791-4,4-4s4,1.791,4,4c0,2.208-1.791,3.999-4,3.999
	S1.987,8.192,1.987,5.984z"/>
</svg>
