<?xml version="1.0" encoding="utf-8"?>
<!-- Generator: Adobe Illustrator 16.0.4, SVG Export Plug-In . SVG Version: 6.00 Build 0)  -->
<!DOCTYPE svg PUBLIC "-//W3C//DTD SVG 1.1//EN" "http://www.w3.org/Graphics/SVG/1.1/DTD/svg11.dtd">
<svg version="1.1" id="Ebene_1" xmlns="http://www.w3.org/2000/svg" xmlns:xlink="http://www.w3.org/1999/xlink" x="0px" y="0px"
	 width="16px" height="16px" viewBox="0 0 16 16" enable-background="new 0 0 16 16" xml:space="preserve">
<path fill-rule="evenodd" clip-rule="evenodd" d="M15.572,13.393L11.51,9.33c-0.46-0.461-1.14-0.546-1.696-0.282L8.882,8.115
	C9.57,7.259,10,6.185,10,5c0-2.762-2.239-5-5-5S0,2.238,0,5s2.239,5,5,5c1.215,0,2.314-0.451,3.181-1.172l0.927,0.927
	c-0.263,0.557-0.178,1.236,0.282,1.696l4.062,4.062c0.585,0.586,1.536,0.586,2.121,0C16.158,14.928,16.158,13.979,15.572,13.393z
	 M1.081,5c0-2.209,1.791-4,4-4s4,1.791,4,4c0,2.208-1.791,3.999-4,3.999S1.081,7.208,1.081,5z"/>
</svg>
