<?xml version="1.0" encoding="utf-8"?>
<!-- Generator: Adobe Illustrator 16.0.4, SVG Export Plug-In . SVG Version: 6.00 Build 0)  -->
<!DOCTYPE svg PUBLIC "-//W3C//DTD SVG 1.1//EN" "http://www.w3.org/Graphics/SVG/1.1/DTD/svg11.dtd">
<svg version="1.1" id="Ebene_1" xmlns="http://www.w3.org/2000/svg" xmlns:xlink="http://www.w3.org/1999/xlink" x="0px" y="0px"
	 width="16px" height="16px" viewBox="0 0 16 16" enable-background="new 0 0 16 16" xml:space="preserve">
<path fill-rule="evenodd" clip-rule="evenodd" d="M10.644,7.834l5.26,5.261l-2.828,2.828l-5.261-5.261l0.707-0.707L7.743,9.176
	C6.958,9.689,6.022,9.994,5.014,9.994c-2.762,0-5-2.238-5-5s2.238-5,5-5s5,2.238,5,5c0,1.029-0.312,1.984-0.845,2.779l0.767,0.768
	L10.644,7.834z M5.014,1.994c-1.656,0-3,1.344-3,3s1.344,3,3,3c0.785,0,1.494-0.309,2.029-0.803l0.168-0.168
	c0.494-0.535,0.803-1.244,0.803-2.029C8.014,3.338,6.67,1.994,5.014,1.994z"/>
</svg>
