<?xml version="1.0" encoding="utf-8"?>
<!-- Generator: Adobe Illustrator 16.0.4, SVG Export Plug-In . SVG Version: 6.00 Build 0)  -->
<!DOCTYPE svg PUBLIC "-//W3C//DTD SVG 1.1//EN" "http://www.w3.org/Graphics/SVG/1.1/DTD/svg11.dtd">
<svg version="1.1" id="Ebene_1" xmlns="http://www.w3.org/2000/svg" xmlns:xlink="http://www.w3.org/1999/xlink" x="0px" y="0px"
	 width="16px" height="16px" viewBox="0 0 16 16" enable-background="new 0 0 16 16" xml:space="preserve">
<path d="M14,3.5C14,3.776,13.776,4,13.5,4h-11C2.224,4,2,3.776,2,3.5l0,0C2,3.224,2.224,3,2.5,3h11C13.776,3,14,3.224,14,3.5L14,3.5
	z M14,11.475c0-0.276-0.224-0.5-0.5-0.5h-11c-0.276,0-0.5,0.224-0.5,0.5l0,0c0,0.276,0.224,0.5,0.5,0.5h11
	C13.776,11.975,14,11.751,14,11.475L14,11.475z M14,7.5C14,7.224,13.776,7,13.5,7h-11C2.224,7,2,7.224,2,7.5l0,0
	C2,7.776,2.224,8,2.5,8h11C13.776,8,14,7.776,14,7.5L14,7.5z"/>
</svg>
