<?xml version="1.0" encoding="utf-8"?>
<!-- Generator: Adobe Illustrator 16.0.4, SVG Export Plug-In . SVG Version: 6.00 Build 0)  -->
<!DOCTYPE svg PUBLIC "-//W3C//DTD SVG 1.1//EN" "http://www.w3.org/Graphics/SVG/1.1/DTD/svg11.dtd">
<svg version="1.1" id="Ebene_1" xmlns="http://www.w3.org/2000/svg" xmlns:xlink="http://www.w3.org/1999/xlink" x="0px" y="0px"
	 width="16px" height="16px" viewBox="0 0 16 16" enable-background="new 0 0 16 16" xml:space="preserve">
<path d="M2,4c0-0.553,0.447-1,1-1h10c0.553,0,1,0.447,1,1s-0.447,1-1,1H3C2.447,5,2,4.553,2,4z M13,7H3C2.447,7,2,7.447,2,8
	s0.447,1,1,1h10c0.553,0,1-0.447,1-1S13.553,7,13,7z M13,11H3c-0.553,0-1,0.447-1,1s0.447,1,1,1h10c0.553,0,1-0.447,1-1
	S13.553,11,13,11z"/>
</svg>
