<?xml version="1.0" encoding="utf-8"?>
<!-- Generator: Adobe Illustrator 16.0.4, SVG Export Plug-In . SVG Version: 6.00 Build 0)  -->
<!DOCTYPE svg PUBLIC "-//W3C//DTD SVG 1.1//EN" "http://www.w3.org/Graphics/SVG/1.1/DTD/svg11.dtd">
<svg version="1.1" id="Ebene_1" xmlns="http://www.w3.org/2000/svg" xmlns:xlink="http://www.w3.org/1999/xlink" x="0px" y="0px"
	 width="16px" height="16px" viewBox="0 0 16 16" enable-background="new 0 0 16 16" xml:space="preserve">
<path d="M14.504,3.5c0,0.828-0.672,1.5-1.5,1.5H2.996c-0.828,0-1.5-0.672-1.5-1.5l0,0c0-0.828,0.672-1.5,1.5-1.5h10.008
	C13.832,2,14.504,2.672,14.504,3.5L14.504,3.5z"/>
<path d="M14.504,7.533c0,0.809-0.656,1.465-1.465,1.465H2.961c-0.809,0-1.465-0.656-1.465-1.465l0,0c0-0.81,0.656-1.466,1.465-1.466
	h10.078C13.848,6.067,14.504,6.724,14.504,7.533L14.504,7.533z"/>
<path d="M14.504,11.496C14.504,12.327,13.831,13,13,13H3c-0.831,0-1.504-0.673-1.504-1.504l0,0c0-0.831,0.673-1.504,1.504-1.504h10
	C13.831,9.992,14.504,10.665,14.504,11.496L14.504,11.496z"/>
</svg>
