<?xml version="1.0" encoding="utf-8"?>
<!-- Generator: Adobe Illustrator 16.0.4, SVG Export Plug-In . SVG Version: 6.00 Build 0)  -->
<!DOCTYPE svg PUBLIC "-//W3C//DTD SVG 1.1//EN" "http://www.w3.org/Graphics/SVG/1.1/DTD/svg11.dtd">
<svg version="1.1" id="Ebene_1" xmlns="http://www.w3.org/2000/svg" xmlns:xlink="http://www.w3.org/1999/xlink" x="0px" y="0px"
	 width="16px" height="16px" viewBox="0 0 16 16" enable-background="new 0 0 16 16" xml:space="preserve">
<path fill-rule="evenodd" clip-rule="evenodd" fill="#181716" d="M4,8c0,0.553-0.447,1-1,1S2,8.553,2,8s0.447-1,1-1S4,7.447,4,8z
	 M8,7C7.447,7,7,7.447,7,8s0.447,1,1,1s1-0.447,1-1S8.553,7,8,7z M13,7c-0.553,0-1,0.447-1,1s0.447,1,1,1s1-0.447,1-1S13.553,7,13,7
	z"/>
</svg>
