<?xml version="1.0" encoding="utf-8"?>
<!-- Generator: Adobe Illustrator 16.0.4, SVG Export Plug-In . SVG Version: 6.00 Build 0)  -->
<!DOCTYPE svg PUBLIC "-//W3C//DTD SVG 1.1//EN" "http://www.w3.org/Graphics/SVG/1.1/DTD/svg11.dtd">
<svg version="1.1" id="Ebene_1" xmlns="http://www.w3.org/2000/svg" xmlns:xlink="http://www.w3.org/1999/xlink" x="0px" y="0px"
	 width="16px" height="16px" viewBox="0 0 16 16" enable-background="new 0 0 16 16" xml:space="preserve">
<path fill-rule="evenodd" clip-rule="evenodd" fill="#181716" d="M4,16c-0.609,0-1-0.312-1-1s0-1,0-1h10V4c0,0,0.391,0,1,0
	s1,0.453,1,1.016s0,9.375,0,9.953S14.688,16,14,16S4.609,16,4,16z M0,1.982C0,1.201,0.453,1,1.016,1S10.362,1,11,1
	c0.641,0,1,0.328,1,1.016s0,9.344,0,9.984s-0.359,1-1.016,1s-9.427,0-9.969,0C0.344,13,0,12.578,0,12S0,2.764,0,1.982z M2,11h8V3H2
	V11z"/>
</svg>
