<?xml version="1.0" encoding="utf-8"?>
<!-- Generator: Adobe Illustrator 16.0.4, SVG Export Plug-In . SVG Version: 6.00 Build 0)  -->
<!DOCTYPE svg PUBLIC "-//W3C//DTD SVG 1.1//EN" "http://www.w3.org/Graphics/SVG/1.1/DTD/svg11.dtd">
<svg version="1.1" id="Ebene_1" xmlns="http://www.w3.org/2000/svg" xmlns:xlink="http://www.w3.org/1999/xlink" x="0px" y="0px"
	 width="16px" height="16px" viewBox="0 0 16 16" enable-background="new 0 0 16 16" xml:space="preserve">
<path fill-rule="evenodd" clip-rule="evenodd" fill="#181716" d="M15,3.5v11c0,0.276-0.224,0.5-0.5,0.5h-11
	C3.224,15,3,14.776,3,14.5S3.224,14,3.5,14H14V3.5C14,3.224,14.224,3,14.5,3S15,3.224,15,3.5z M12,13H2c-0.553,0-1-0.447-1-1V2
	c0-0.553,0.447-1,1-1h10c0.553,0,1,0.447,1,1v10C13,12.553,12.553,13,12,13z M2,12h10V2H2V12z"/>
</svg>
