<?xml version="1.0" encoding="utf-8"?>
<!-- Generator: Adobe Illustrator 16.0.4, SVG Export Plug-In . SVG Version: 6.00 Build 0)  -->
<!DOCTYPE svg PUBLIC "-//W3C//DTD SVG 1.1//EN" "http://www.w3.org/Graphics/SVG/1.1/DTD/svg11.dtd">
<svg version="1.1" id="Ebene_1" xmlns="http://www.w3.org/2000/svg" xmlns:xlink="http://www.w3.org/1999/xlink" x="0px" y="0px"
	 width="16px" height="16px" viewBox="0 0 16 16" enable-background="new 0 0 16 16" xml:space="preserve">
<path fill-rule="evenodd" clip-rule="evenodd" fill="#181716" d="M11,11.168v-0.311c0-0.271-0.052-0.527-0.126-0.776
	C12.156,9.177,13,7.689,13,6c0-2.761-2.238-5-5-5C5.239,1,3,3.239,3,6c0,1.689,0.843,3.177,2.126,4.081
	C5.052,10.33,5,10.586,5,10.857v0.311C3.214,10.128,2,8.215,2,6c0-3.313,2.687-6,6-6s6,2.687,6,6C14,8.215,12.786,10.128,11,11.168z
	 M4,6c0-2.209,1.791-4,4-4s4,1.791,4,4c0,1.299-0.629,2.441-1.588,3.172c-0.205-0.265-0.449-0.5-0.735-0.684
	C10.476,7.949,11,7.036,11,6c0-1.657-1.343-3-3-3C6.343,3,5,4.343,5,6c0,1.036,0.525,1.949,1.323,2.488
	C6.037,8.672,5.792,8.907,5.588,9.172C4.629,8.441,4,7.299,4,6z M6,6c0-1.104,0.896-2,2-2s2,0.896,2,2S9.104,8,8,8S6,7.104,6,6z
	 M8,9c1.104,0,2,0.896,2,2v3c0,1.104-0.896,2-2,2s-2-0.896-2-2v-3C6,9.896,6.896,9,8,9z"/>
</svg>
