<?xml version="1.0" encoding="utf-8"?>
<!-- Generator: Adobe Illustrator 16.0.4, SVG Export Plug-In . SVG Version: 6.00 Build 0)  -->
<!DOCTYPE svg PUBLIC "-//W3C//DTD SVG 1.1//EN" "http://www.w3.org/Graphics/SVG/1.1/DTD/svg11.dtd">
<svg version="1.1" id="Ebene_1" xmlns="http://www.w3.org/2000/svg" xmlns:xlink="http://www.w3.org/1999/xlink" x="0px" y="0px"
	 width="16px" height="16px" viewBox="0 0 16 16" enable-background="new 0 0 16 16" xml:space="preserve">
<path id="podlove_signet_1_" fill="#181716" d="M10.837,0.897c0.67,0,1.216,0.545,1.216,1.216v11.802
	c0,0.671-0.546,1.216-1.216,1.216H5.163c-0.67,0-1.216-0.545-1.216-1.216V2.113c0-0.671,0.545-1.216,1.216-1.216H10.837 M10.837,0
	H5.163C3.996,0,3.05,0.946,3.05,2.113v11.802c0,1.167,0.946,2.113,2.113,2.113h5.674c1.167,0,2.113-0.946,2.113-2.113V2.113
	C12.95,0.946,12.004,0,10.837,0L10.837,0z M7.992,9.012c1.27,0,2.299,1.029,2.299,2.299c0,1.271-1.029,2.299-2.299,2.299
	c-1.27,0-2.299-1.029-2.299-2.299C5.692,10.042,6.722,9.012,7.992,9.012 M7.992,8.115c-1.762,0-3.196,1.434-3.196,3.196
	c0,1.763,1.434,3.196,3.196,3.196s3.196-1.434,3.196-3.196C11.188,9.549,9.754,8.115,7.992,8.115L7.992,8.115z M7.966,7.592
	L5.3,4.924C4.939,4.556,4.742,4.074,4.742,3.562c0-1.07,0.871-1.941,1.94-1.941c0.477,0,0.934,0.179,1.284,0.487
	C8.317,1.8,8.773,1.622,9.25,1.622c1.07,0,1.941,0.871,1.941,1.941c0,0.511-0.197,0.994-0.556,1.359L7.966,7.592z M6.683,2.519
	c-0.576,0-1.043,0.468-1.043,1.044c0,0.274,0.106,0.535,0.298,0.73l2.029,2.03l2.033-2.033c0.189-0.193,0.295-0.454,0.295-0.728
	c0-0.576-0.468-1.044-1.043-1.044c-0.366,0-0.71,0.197-0.898,0.513L7.966,3.683L7.581,3.032C7.391,2.71,7.055,2.519,6.683,2.519z
	 M7.992,10.488c0.455,0,0.823,0.368,0.823,0.823c0,0.455-0.368,0.823-0.823,0.823c-0.455,0-0.823-0.368-0.823-0.823
	C7.168,10.856,7.537,10.488,7.992,10.488z"/>
</svg>
