<?xml version="1.0" encoding="utf-8"?>
<!-- Generator: Adobe Illustrator 16.0.4, SVG Export Plug-In . SVG Version: 6.00 Build 0)  -->
<!DOCTYPE svg PUBLIC "-//W3C//DTD SVG 1.1//EN" "http://www.w3.org/Graphics/SVG/1.1/DTD/svg11.dtd">
<svg version="1.1" id="Ebene_1" xmlns="http://www.w3.org/2000/svg" xmlns:xlink="http://www.w3.org/1999/xlink" x="0px" y="0px"
	 width="16px" height="16px" viewBox="0 0 16 16" enable-background="new 0 0 16 16" xml:space="preserve">
<path fill-rule="evenodd" clip-rule="evenodd" fill="#181716" d="M11.99,16h-8c-0.552,0-1-0.447-1-1V1c0-0.552,0.448-1,1-1h8
	c0.553,0,1,0.448,1,1v14C12.99,15.553,12.542,16,11.99,16z M8,14c1.657,0,3-1.343,3-3S9.657,8,8,8c-1.657,0-3,1.343-3,3
	S6.343,14,8,14z M11.99,1h-8v6h8V1z M8,9.905c0.604,0,1.095,0.49,1.095,1.095S8.604,12.095,8,12.095S6.906,11.604,6.906,11
	S7.396,9.905,8,9.905z M10.523,3.455c0.008,0.977-2.531,2.734-2.531,2.734S5.449,4.448,5.456,3.465
	c0.012-1.7,1.877-2.042,2.533-0.577C8.615,1.482,10.512,1.751,10.523,3.455z"/>
</svg>
