<?xml version="1.0" encoding="utf-8"?>
<!-- Generator: Adobe Illustrator 16.0.4, SVG Export Plug-In . SVG Version: 6.00 Build 0)  -->
<!DOCTYPE svg PUBLIC "-//W3C//DTD SVG 1.1//EN" "http://www.w3.org/Graphics/SVG/1.1/DTD/svg11.dtd">
<svg version="1.1" id="Ebene_1" xmlns="http://www.w3.org/2000/svg" xmlns:xlink="http://www.w3.org/1999/xlink" x="0px" y="0px"
	 width="16px" height="16px" viewBox="0 0 16 16" enable-background="new 0 0 16 16" xml:space="preserve">
<path fill-rule="evenodd" clip-rule="evenodd" fill="#181716" d="M8.949,13C8.974,12.836,9,12.672,9,12.5S8.974,12.164,8.949,12H16
	v1H8.949z M14,4.5c0-0.172-0.026-0.336-0.051-0.5H16v1h-2.051C13.974,4.836,14,4.672,14,4.5z M10.5,7C9.119,7,8,5.881,8,4.5
	S9.119,2,10.5,2S13,3.119,13,4.5S11.881,7,10.5,7z M10.5,3C9.672,3,9,3.672,9,4.5S9.672,6,10.5,6S12,5.328,12,4.5S11.328,3,10.5,3z
	 M5.5,15C4.119,15,3,13.881,3,12.5S4.119,10,5.5,10S8,11.119,8,12.5S6.881,15,5.5,15z M5.5,11C4.672,11,4,11.672,4,12.5
	S4.672,14,5.5,14S7,13.328,7,12.5S6.328,11,5.5,11z M0,5V4h7.051C7.026,4.164,7,4.328,7,4.5S7.026,4.836,7.051,5H0z M2,12.5
	c0,0.172,0.026,0.336,0.051,0.5H0v-1h2.051C2.026,12.164,2,12.328,2,12.5z"/>
</svg>
