<?xml version="1.0" encoding="utf-8"?>
<!-- Generator: Adobe Illustrator 16.0.4, SVG Export Plug-In . SVG Version: 6.00 Build 0)  -->
<!DOCTYPE svg PUBLIC "-//W3C//DTD SVG 1.1//EN" "http://www.w3.org/Graphics/SVG/1.1/DTD/svg11.dtd">
<svg version="1.1" id="Ebene_1" xmlns="http://www.w3.org/2000/svg" xmlns:xlink="http://www.w3.org/1999/xlink" x="0px" y="0px"
	 width="15.996px" height="15.997px" viewBox="0 0 15.996 15.997" enable-background="new 0 0 15.996 15.997" xml:space="preserve">
<path fill-rule="evenodd" clip-rule="evenodd" d="M12.992,5.496v9c0,0.276-0.224,0.5-0.5,0.5H2.493c-0.276,0-0.5-0.224-0.5-0.5v-9
	c0-0.276,0.224-0.5,0.5-0.5h1.999c0.276,0,0.5,0.224,0.5,0.5s-0.224,0.5-0.5,0.5H2.993v8h8.999v-8h-1.5c-0.276,0-0.5-0.224-0.5-0.5
	s0.224-0.5,0.5-0.5h2C12.769,4.996,12.992,5.22,12.992,5.496z M4.909,3.731l2.599-2.6l2.571,2.571c0.185,0.184,0.482,0.184,0.666,0
	c0.184-0.185,0.184-0.481,0-0.665L7.843,0.136c-0.001,0-0.001-0.002-0.001-0.002c-0.184-0.184-0.482-0.184-0.666,0L4.245,3.065
	c-0.184,0.184-0.184,0.482,0,0.666S4.726,3.915,4.909,3.731z M6.995,3.496v8c0,0.276,0.224,0.5,0.5,0.5s0.5-0.224,0.5-0.5v-8
	c0-0.276-0.224-0.5-0.5-0.5S6.995,3.22,6.995,3.496z"/>
</svg>
