<?xml version="1.0" encoding="utf-8"?>
<!-- Generator: Adobe Illustrator 16.0.4, SVG Export Plug-In . SVG Version: 6.00 Build 0)  -->
<!DOCTYPE svg PUBLIC "-//W3C//DTD SVG 1.1//EN" "http://www.w3.org/Graphics/SVG/1.1/DTD/svg11.dtd">
<svg version="1.1" id="Ebene_1" xmlns="http://www.w3.org/2000/svg" xmlns:xlink="http://www.w3.org/1999/xlink" x="0px" y="0px"
	 width="16px" height="16px" viewBox="0 0 16 16" enable-background="new 0 0 16 16" xml:space="preserve">
<path id="shownotes_logo" fill-rule="evenodd" clip-rule="evenodd" fill="#181716" d="M9.134,0.122C9.124,0.045,9.056,0,9.011,0
	H6.988C6.942,0,6.874,0.036,6.869,0.112c-0.058,0.69-0.348,4.347,0.01,5.597C6.917,5.777,8,7.582,8,7.582s1.026-1.715,1.124-1.873
	C9.468,4.463,9.192,0.832,9.134,0.122z M7.385,0.51h1.237c0,0,0.015,0.188,0.035,0.495H7.349C7.37,0.698,7.385,0.51,7.385,0.51z
	 M8.662,5.414c0,0.001-0.35,0.554-0.66,0.554S7.348,5.417,7.345,5.414C7.163,4.67,7.248,2.65,7.321,1.447h1.364
	C8.757,2.65,8.842,4.67,8.662,5.414z M10.217,9.093c-0.07-0.033-2.007-0.857-2.007-0.857s0.178,1.991,0.191,2.176
	c0.453,1.208,2.811,3.986,3.275,4.526c0.053,0.056,0.136,0.052,0.171,0.027c0.31-0.226,1.33-0.966,1.637-1.189
	c0.037-0.027,0.07-0.096,0.029-0.161C13.156,13.022,11.241,9.894,10.217,9.093z M8.948,10.379c0,0-0.043-0.653,0.209-0.835
	c0.25-0.183,0.854,0.061,0.856,0.062c0.586,0.495,1.703,2.18,2.351,3.194l-1.104,0.803C10.496,12.672,9.24,11.087,8.948,10.379z
	 M11.862,14.325c0,0-0.124-0.145-0.319-0.38l1.058-0.77c0.164,0.261,0.262,0.422,0.262,0.422L11.862,14.325z M15.867,6.454
	c-0.119-0.365-0.508-1.563-0.625-1.925c-0.015-0.042-0.07-0.097-0.145-0.078c-0.674,0.158-4.241,1.012-5.32,1.738
	C9.726,6.246,8.343,7.833,8.343,7.833s1.948,0.447,2.127,0.492c1.292-0.057,4.661-1.442,5.319-1.717
	C15.86,6.575,15.88,6.496,15.867,6.454z M10.611,7.793c-0.001,0-0.635-0.162-0.73-0.457c-0.096-0.294,0.32-0.792,0.323-0.796
	c0.65-0.403,2.598-0.944,3.765-1.248l0.42,1.298C13.268,7.03,11.373,7.735,10.611,7.793z M14.802,6.427l-0.404-1.245
	c0.298-0.074,0.482-0.119,0.482-0.119l0.382,1.177C15.262,6.241,15.086,6.314,14.802,6.427z M2.483,13.603
	c-0.036,0.069-0.009,0.145,0.027,0.17c0.311,0.226,1.33,0.967,1.636,1.19C4.184,14.991,4.261,15,4.31,14.941
	c0.453-0.524,2.837-3.311,3.282-4.534c0.009-0.076,0.195-2.172,0.195-2.172S5.949,9.019,5.776,9.088
	C4.766,9.894,2.854,12.993,2.483,13.603z M4.126,14.317L3.125,13.59c0,0,0.099-0.162,0.263-0.421l1.059,0.77
	C4.25,14.173,4.126,14.317,4.126,14.317z M5.976,9.599c0-0.001,0.609-0.242,0.859-0.059c0.25,0.182,0.207,0.83,0.207,0.834
	c-0.29,0.708-1.547,2.291-2.312,3.222l-1.104-0.802C4.274,11.779,5.393,10.096,5.976,9.599z M7.658,7.832
	c0,0-1.314-1.505-1.435-1.648C5.147,5.472,1.608,4.611,0.913,4.447c-0.075-0.014-0.14,0.037-0.153,0.079
	C0.641,4.892,0.251,6.089,0.134,6.449c-0.014,0.044,0,0.121,0.071,0.148C0.843,6.867,4.23,8.272,5.53,8.318
	C5.606,8.303,7.658,7.832,7.658,7.832z M1.201,6.418C0.917,6.303,0.741,6.23,0.741,6.23l0.382-1.177c0,0,0.185,0.044,0.482,0.12
	L1.201,6.418z M1.613,6.581l0.422-1.297C3.201,5.586,5.148,6.131,5.8,6.532c0.001,0,0.417,0.503,0.321,0.798
	C6.026,7.625,5.397,7.783,5.393,7.785C4.629,7.728,2.735,7.022,1.613,6.581z"/>
</svg>
