<?xml version="1.0" encoding="utf-8"?>
<!-- Generator: Adobe Illustrator 16.0.4, SVG Export Plug-In . SVG Version: 6.00 Build 0)  -->
<!DOCTYPE svg PUBLIC "-//W3C//DTD SVG 1.1//EN" "http://www.w3.org/Graphics/SVG/1.1/DTD/svg11.dtd">
<svg version="1.1" id="Ebene_1" xmlns="http://www.w3.org/2000/svg" xmlns:xlink="http://www.w3.org/1999/xlink" x="0px" y="0px"
	 width="16px" height="16px" viewBox="0 0 16 16" enable-background="new 0 0 16 16" xml:space="preserve">
<path id="shownotes_logo_1_" d="M9.127,0.129c-0.01-0.077-0.078-0.123-0.122-0.123H6.979c-0.047,0-0.115,0.037-0.119,0.115
	c-0.059,0.69-0.35,4.35,0.01,5.602C6.907,5.79,7.991,7.598,7.991,7.598s1.027-1.717,1.126-1.875
	C9.462,4.476,9.186,0.841,9.127,0.129z M10.211,9.109c-0.069-0.032-2.009-0.857-2.009-0.857s0.177,1.993,0.19,2.179
	c0.454,1.211,2.813,3.989,3.279,4.531c0.054,0.057,0.136,0.053,0.171,0.026c0.312-0.226,1.332-0.967,1.639-1.189
	c0.038-0.027,0.07-0.098,0.03-0.162C13.153,13.044,11.236,9.912,10.211,9.109z M15.868,6.468c-0.119-0.366-0.508-1.565-0.626-1.926
	c-0.014-0.045-0.07-0.098-0.145-0.079c-0.675,0.157-4.245,1.012-5.325,1.741C9.72,6.259,8.336,7.849,8.336,7.849
	s1.95,0.446,2.13,0.491c1.292-0.058,4.665-1.442,5.323-1.717C15.859,6.589,15.882,6.509,15.868,6.468z M2.469,13.624
	c-0.036,0.069-0.008,0.146,0.027,0.172c0.312,0.226,1.331,0.967,1.639,1.19c0.037,0.027,0.114,0.038,0.162-0.022
	c0.455-0.524,2.84-3.313,3.287-4.537c0.009-0.077,0.194-2.176,0.194-2.176S5.938,9.035,5.766,9.105
	C4.754,9.911,2.841,13.015,2.469,13.624z M7.648,7.847c0,0-1.314-1.507-1.435-1.648C5.135,5.483,1.593,4.623,0.897,4.457
	c-0.076-0.013-0.141,0.038-0.153,0.08c-0.12,0.366-0.51,1.565-0.627,1.927c-0.015,0.043-0.001,0.12,0.071,0.148
	c0.638,0.269,4.03,1.676,5.331,1.722C5.595,8.319,7.648,7.847,7.648,7.847z"/>
</svg>
