<?xml version="1.0" encoding="utf-8"?>
<!-- Generator: Adobe Illustrator 16.0.4, SVG Export Plug-In . SVG Version: 6.00 Build 0)  -->
<!DOCTYPE svg PUBLIC "-//W3C//DTD SVG 1.1//EN" "http://www.w3.org/Graphics/SVG/1.1/DTD/svg11.dtd">
<svg version="1.1" id="Ebene_1" xmlns="http://www.w3.org/2000/svg" xmlns:xlink="http://www.w3.org/1999/xlink" x="0px" y="0px"
	 width="16px" height="16px" viewBox="0 0 16 16" enable-background="new 0 0 16 16" xml:space="preserve">
<path fill-rule="evenodd" clip-rule="evenodd" fill="#181716" d="M14.666,4.33v10.009h-1.443V4.33H12v3.449v6.56h-1.444V8.118
	C9.191,8.029,8.111,6.857,8.111,5.423s1.08-2.604,2.444-2.694V2.72H12h1.223h1.443H16v1.61H14.666z M4.111,12.339v1.655h1.444v1.035
	H4.111h-1H1.666v-1.035h1.445v-1.641C1.357,12.129,0,10.592,0,8.729V7.551h0.777v1.26c0,1.592,1.244,2.883,2.778,2.883
	s2.778-1.291,2.778-2.883v-1.26h0.777v1.178C7.111,10.553,5.811,12.064,4.111,12.339z M3.556,10.772c-1.044,0-1.89-0.876-1.89-1.956
	V3.985c0-1.08,0.846-1.956,1.89-1.956c1.043,0,1.889,0.876,1.889,1.956v4.831C5.444,9.896,4.599,10.772,3.556,10.772z"/>
</svg>
