<?xml version="1.0" encoding="utf-8"?>
<!-- Generator: Adobe Illustrator 16.0.4, SVG Export Plug-In . SVG Version: 6.00 Build 0)  -->
<!DOCTYPE svg PUBLIC "-//W3C//DTD SVG 1.1//EN" "http://www.w3.org/Graphics/SVG/1.1/DTD/svg11.dtd">
<svg version="1.1" id="Ebene_1" xmlns="http://www.w3.org/2000/svg" xmlns:xlink="http://www.w3.org/1999/xlink" x="0px" y="0px"
	 width="16px" height="16px" viewBox="0 0 16 16" enable-background="new 0 0 16 16" xml:space="preserve">
<path d="M15.959,16c0,0-13.978,0-14.968,0C0.375,16,0,15.625,0,15c0-0.609,0.359-1,0.991-1c0.97,0,9.95,0,9.95,0l0.019-3L15.959,16z
	 M0.981,9.184c-0.606-0.681-0.909-1.68-0.909-2.997V3.992c0-1.312,0.302-2.312,0.906-2.998c0.604-0.686,1.423-1.028,2.458-1.028
	c1.03,0,1.849,0.343,2.458,1.028C6.501,1.681,6.806,2.68,6.806,3.992v2.194c0,1.317-0.302,2.316-0.906,2.997
	c-0.604,0.682-1.421,1.022-2.451,1.022C2.41,10.206,1.587,9.865,0.981,9.184z M2.062,6.373c0,0.802,0.117,1.385,0.352,1.749
	s0.58,0.546,1.036,0.546c0.447,0,0.786-0.182,1.019-0.546s0.349-0.947,0.349-1.749V3.785c0-0.788-0.119-1.365-0.355-1.731
	s-0.579-0.55-1.025-0.55c-0.451,0-0.793,0.182-1.025,0.546S2.062,2.993,2.062,3.785V6.373z M7.819,12.127l1.087-2.153v-1.62H6.964
	v1.559l-0.479,2.215H7.819z M10.24,9.457c0.652,0.5,1.436,0.749,2.352,0.749c1.084,0,1.915-0.316,2.492-0.95
	s0.865-1.429,0.865-2.386c0-1.058-0.263-1.882-0.79-2.475s-1.268-0.882-2.225-0.868c-0.314,0.005-0.602,0.051-0.861,0.141
	c-0.26,0.088-0.481,0.201-0.663,0.338l0.273-2.297h3.917v-1.6h-5.551L9.474,5.653l1.757,0.116c0.086-0.241,0.231-0.433,0.434-0.574
	s0.496-0.212,0.878-0.212c0.465,0,0.816,0.173,1.053,0.519s0.355,0.805,0.355,1.378c0,0.532-0.11,0.964-0.332,1.293
	c-0.221,0.33-0.564,0.495-1.029,0.495c-0.406,0-0.734-0.124-0.984-0.371s-0.376-0.59-0.376-1.03L9.31,7.362L9.296,7.396
	C9.273,8.271,9.588,8.959,10.24,9.457z"/>
</svg>
