<?xml version="1.0" encoding="utf-8"?>
<!-- Generator: Adobe Illustrator 16.0.4, SVG Export Plug-In . SVG Version: 6.00 Build 0)  -->
<!DOCTYPE svg PUBLIC "-//W3C//DTD SVG 1.1//EN" "http://www.w3.org/Graphics/SVG/1.1/DTD/svg11.dtd">
<svg version="1.1" id="Ebene_1" xmlns="http://www.w3.org/2000/svg" xmlns:xlink="http://www.w3.org/1999/xlink" x="0px" y="0px"
	 width="16px" height="16px" viewBox="0 0 16 16" enable-background="new 0 0 16 16" xml:space="preserve">
<path d="M6.81,3.113c0-0.52,0.12-0.936,0.359-1.247c0.239-0.312,0.589-0.469,1.049-0.469c0.415,0,0.735,0.133,0.96,0.4
	c0.226,0.266,0.338,0.609,0.338,1.028c0,0.314-0.098,0.655-0.294,1.022c-0.196,0.366-0.526,0.816-0.991,1.35L5.012,8.65v1.306h6.795
	V8.418H7.623L7.609,8.384L9.38,6.456c0.761-0.825,1.307-1.491,1.637-2c0.331-0.508,0.496-1.062,0.496-1.664
	c0-0.889-0.293-1.6-0.878-2.133s-1.391-0.8-2.417-0.8c-1.039,0-1.865,0.312-2.478,0.933c-0.613,0.623-0.908,1.383-0.885,2.28
	l0.014,0.041H6.81z M15.979,16c0,0-13.978,0-14.968,0c-0.616,0-0.991-0.375-0.991-1c0-0.609,0.359-1,0.991-1c0.97,0,9.95,0,9.95,0
	l0.019-3L15.979,16z"/>
</svg>
