<?xml version="1.0" encoding="utf-8"?>
<!-- Generator: Adobe Illustrator 16.0.4, SVG Export Plug-In . SVG Version: 6.00 Build 0)  -->
<!DOCTYPE svg PUBLIC "-//W3C//DTD SVG 1.1//EN" "http://www.w3.org/Graphics/SVG/1.1/DTD/svg11.dtd">
<svg version="1.1" id="Ebene_1" xmlns="http://www.w3.org/2000/svg" xmlns:xlink="http://www.w3.org/1999/xlink" x="0px" y="0px"
	 width="16px" height="16px" viewBox="0 0 16 16" enable-background="new 0 0 16 16" xml:space="preserve">
<path d="M2.93,9.956h1.996V0.003l-4.02,0.355v1.408H2.93V9.956z M7.82,9.867v-1.62H5.879v1.559L5.4,12.021h1.333L7.82,9.867z
	 M9.434,9.351c0.652,0.5,1.436,0.749,2.352,0.749c1.084,0,1.915-0.316,2.492-0.95s0.865-1.429,0.865-2.386
	c0-1.058-0.263-1.882-0.79-2.475s-1.268-0.882-2.225-0.868c-0.314,0.005-0.602,0.051-0.861,0.141
	c-0.26,0.088-0.481,0.201-0.663,0.338l0.273-2.297h3.917v-1.6H9.243L8.668,5.547l1.757,0.116c0.086-0.241,0.231-0.433,0.434-0.574
	s0.496-0.212,0.878-0.212c0.465,0,0.816,0.173,1.053,0.519s0.355,0.805,0.355,1.378c0,0.532-0.11,0.964-0.332,1.293
	c-0.221,0.33-0.564,0.495-1.029,0.495c-0.406,0-0.734-0.124-0.984-0.371s-0.376-0.59-0.376-1.03L8.504,7.256L8.491,7.29
	C8.468,8.165,8.782,8.853,9.434,9.351z M15.979,16c0,0-13.978,0-14.968,0c-0.616,0-0.991-0.375-0.991-1c0-0.609,0.359-1,0.991-1
	c0.97,0,9.95,0,9.95,0l0.019-3L15.979,16z"/>
</svg>
