<?xml version="1.0" encoding="utf-8"?>
<!-- Generator: Adobe Illustrator 16.0.4, SVG Export Plug-In . SVG Version: 6.00 Build 0)  -->
<!DOCTYPE svg PUBLIC "-//W3C//DTD SVG 1.1//EN" "http://www.w3.org/Graphics/SVG/1.1/DTD/svg11.dtd">
<svg version="1.1" id="Ebene_1" xmlns="http://www.w3.org/2000/svg" xmlns:xlink="http://www.w3.org/1999/xlink" x="0px" y="0px"
	 width="16px" height="16px" viewBox="0 0 16 16" enable-background="new 0 0 16 16" xml:space="preserve">
<path fill-rule="evenodd" clip-rule="evenodd" d="M10.75,4.707c-0.184,0.184-0.481,0.184-0.666,0L7.513,2.136l-2.599,2.6
	c-0.184,0.184-0.48,0.184-0.664,0s-0.184-0.482,0-0.666l2.931-2.932c0.184-0.184,0.482-0.184,0.666,0c0,0,0,0.002,0.001,0.002
	l2.902,2.902C10.934,4.226,10.934,4.522,10.75,4.707z"/>
<path fill-rule="evenodd" clip-rule="evenodd" fill="#181716" d="M14.994,8.47C14.978,8.208,14.766,8,14.5,8
	s-0.478,0.208-0.494,0.47H14V12c0,1.104-0.896,2-2,2H3c-1.104,0-2-0.896-2-2V8.47H0.994C0.978,8.208,0.766,8,0.5,8
	S0.022,8.208,0.006,8.47H0V12c0,1.657,1.343,3,3,3h9c1.657,0,3-1.343,3-3V8.47H14.994z"/>
<path fill-rule="evenodd" clip-rule="evenodd" d="M7,10.5C7,10.776,7.224,11,7.5,11l0,0C7.776,11,8,10.776,8,10.5v-6
	C8,4.224,7.776,4,7.5,4l0,0C7.224,4,7,4.224,7,4.5V10.5z"/>
</svg>
