<?xml version="1.0" encoding="utf-8"?>
<!-- Generator: Adobe Illustrator 16.0.4, SVG Export Plug-In . SVG Version: 6.00 Build 0)  -->
<!DOCTYPE svg PUBLIC "-//W3C//DTD SVG 1.1//EN" "http://www.w3.org/Graphics/SVG/1.1/DTD/svg11.dtd">
<svg version="1.1" id="Ebene_1" xmlns="http://www.w3.org/2000/svg" xmlns:xlink="http://www.w3.org/1999/xlink" x="0px" y="0px"
	 width="16px" height="16px" viewBox="0 0 16 16" enable-background="new 0 0 16 16" xml:space="preserve">
<path fill-rule="evenodd" clip-rule="evenodd" fill="#181716" d="M9,1.016c0,0.812,0,12.953,0,13.969S8.014,16,8.014,16l-4.047-4
	c0,0-1.905,0-2.936,0S0,11,0,11V5c0,0,0.032-1,1.016-1s2.951,0,2.951,0l4.031-4C7.998,0,8.998,0,9,1.016z M15.995,8.023
	c0-0.003,0-0.005,0-0.008h-0.001c-0.008-2.663-1.62-4.942-3.936-6.022c0,0-0.152-0.024-0.23-0.024c-0.311,0-0.562,0.252-0.562,0.562
	c0,0.212,0.122,0.39,0.295,0.485c0,0,3.207,1.387,3.214,5.007c-0.008,3.62-3.214,5.007-3.214,5.007
	c-0.173,0.096-0.295,0.273-0.295,0.485c0,0.311,0.252,0.562,0.562,0.562c0.078,0,0.23-0.024,0.23-0.024
	c2.316-1.08,3.928-3.359,3.936-6.022h0.001C15.995,8.028,15.995,8.026,15.995,8.023z M13.21,8.031L13.21,8.031
	c0.001-0.003,0-0.005,0-0.008s0-0.005,0-0.008H13.21c-0.008-1.581-0.964-2.937-2.338-3.582c0,0-0.158-0.059-0.247-0.059
	c-0.311,0-0.562,0.252-0.562,0.562c0,0.223,0.132,0.411,0.32,0.502c0,0,1.634,0.652,1.641,2.584
	c-0.007,1.932-1.641,2.584-1.641,2.584c-0.188,0.091-0.32,0.279-0.32,0.502c0,0.311,0.252,0.562,0.562,0.562
	c0.089,0,0.247-0.059,0.247-0.059C12.246,10.968,13.202,9.612,13.21,8.031z"/>
</svg>
