<?xml version="1.0" encoding="utf-8"?>
<!-- Generator: Adobe Illustrator 16.0.4, SVG Export Plug-In . SVG Version: 6.00 Build 0)  -->
<!DOCTYPE svg PUBLIC "-//W3C//DTD SVG 1.1//EN" "http://www.w3.org/Graphics/SVG/1.1/DTD/svg11.dtd">
<svg version="1.1" id="Ebene_1" xmlns="http://www.w3.org/2000/svg" xmlns:xlink="http://www.w3.org/1999/xlink" x="0px" y="0px"
	 width="16px" height="16px" viewBox="0 0 16 16" enable-background="new 0 0 16 16" xml:space="preserve">
<path fill-rule="evenodd" clip-rule="evenodd" fill="#181716" d="M15.995,8.023c0-0.003,0-0.005,0-0.008h-0.001
	c-0.008-2.663-1.62-4.942-3.936-6.022c0,0-0.152-0.024-0.23-0.024c-0.311,0-0.562,0.252-0.562,0.562c0,0.212,0.122,0.39,0.295,0.485
	c0,0,3.207,1.387,3.214,5.007c-0.008,3.62-3.214,5.007-3.214,5.007c-0.173,0.096-0.295,0.273-0.295,0.485
	c0,0.311,0.252,0.562,0.562,0.562c0.078,0,0.23-0.024,0.23-0.024c2.316-1.08,3.928-3.359,3.936-6.022h0.001
	C15.995,8.028,15.995,8.026,15.995,8.023z M13.21,8.031L13.21,8.031c0.001-0.003,0-0.005,0-0.008s0-0.005,0-0.008H13.21
	c-0.008-1.581-0.964-2.937-2.338-3.582c0,0-0.158-0.059-0.247-0.059c-0.311,0-0.562,0.252-0.562,0.562
	c0,0.223,0.132,0.411,0.32,0.502c0,0,1.634,0.652,1.641,2.584c-0.007,1.932-1.641,2.584-1.641,2.584
	c-0.188,0.091-0.32,0.279-0.32,0.502c0,0.311,0.252,0.562,0.562,0.562c0.089,0,0.247-0.059,0.247-0.059
	C12.246,10.968,13.202,9.612,13.21,8.031z M9,0.492v15.016C9,15.779,8.78,16,8.508,16c-0.149,0-0.278-0.07-0.369-0.175l-3.866-3.85
	H0.495C0.221,11.976,0,11.754,0,11.48c0-0.274,0.222-0.496,0.496-0.496h4.009c0.171,0,0.315,0.092,0.404,0.225l3.107,3.095V1.681
	L4.908,4.775C4.819,4.908,4.676,5,4.504,5H0.495C0.221,5,0,4.778,0,4.504C0,4.23,0.221,4.009,0.495,4.009h3.778l3.88-3.864
	C8.251,0.047,8.379-0.001,8.507,0h0c0.009,0,0.017,0.005,0.026,0.005c0.054,0.004,0.108,0.012,0.16,0.032
	c0.122,0.051,0.219,0.147,0.27,0.27c0.012,0.029,0.012,0.06,0.018,0.09C8.987,0.429,9,0.458,9,0.492z"/>
</svg>
