<?xml version="1.0" encoding="utf-8"?>
<!-- Generator: Adobe Illustrator 16.0.4, SVG Export Plug-In . SVG Version: 6.00 Build 0)  -->
<!DOCTYPE svg PUBLIC "-//W3C//DTD SVG 1.1//EN" "http://www.w3.org/Graphics/SVG/1.1/DTD/svg11.dtd">
<svg version="1.1" id="Ebene_1" xmlns="http://www.w3.org/2000/svg" xmlns:xlink="http://www.w3.org/1999/xlink" x="0px" y="0px"
	 width="16px" height="16px" viewBox="0 0 16 16" enable-background="new 0 0 16 16" xml:space="preserve">
<g>
	<path fill-rule="evenodd" clip-rule="evenodd" fill="#181716" d="M8.963,0.307c-0.05-0.122-0.147-0.219-0.27-0.27
		c-0.051-0.021-0.105-0.028-0.16-0.032C8.524,0.005,8.517,0,8.508,0h0C8.379-0.001,8.251,0.047,8.154,0.145l-3.88,3.864H0.495
		C0.221,4.009,0,4.23,0,4.504C0,4.778,0.221,5,0.495,5h4.009c0.171,0,0.315-0.092,0.404-0.225l3.107-3.095v12.623l-3.107-3.095
		c-0.089-0.133-0.232-0.225-0.404-0.225H0.495C0.221,10.984,0,11.206,0,11.48c0,0.273,0.222,0.495,0.496,0.495h3.778l3.866,3.85
		C8.229,15.93,8.358,16,8.508,16C8.78,16,9,15.779,9,15.508V0.492c0-0.034-0.013-0.063-0.02-0.096
		C8.975,0.366,8.975,0.336,8.963,0.307z"/>
	<path fill-rule="evenodd" clip-rule="evenodd" fill="#181716" d="M13.732,8l-0.013,0.014V7.986L13.732,8l2.121-2.121
		c0.196-0.195,0.196-0.512,0-0.707c-0.195-0.195-0.512-0.195-0.707,0l-2.122,2.121l0.027,0.027h-0.055l0.027-0.027l-2.121-2.121
		c-0.196-0.197-0.512-0.197-0.708,0c-0.194,0.194-0.195,0.51,0,0.707L12.317,8l0.019-0.019v0.037L12.317,8l-2.122,2.121
		c-0.196,0.196-0.196,0.513,0,0.707c0.195,0.195,0.511,0.196,0.708,0l2.121-2.121l-0.004-0.004h0.008l-0.004,0.004l2.121,2.121
		c0.196,0.195,0.512,0.195,0.708,0c0.195-0.195,0.195-0.512,0-0.707L13.732,8z"/>
</g>
</svg>
